<?xml version="1.0" encoding="UTF-8" standalone="no"?>
<svg
   height="512px"
   id="Layer_1"
   style="enable-background:new 0 0 512 512;"
   version="1.1"
   viewBox="0 0 512 512"
   width="512px"
   xml:space="preserve"
   sodipodi:docname="gear.svg"
   inkscape:version="1.1.2 (b8e25be833, 2022-02-05)"
   xmlns:inkscape="http://www.inkscape.org/namespaces/inkscape"
   xmlns:sodipodi="http://sodipodi.sourceforge.net/DTD/sodipodi-0.dtd"
   xmlns="http://www.w3.org/2000/svg"
   xmlns:svg="http://www.w3.org/2000/svg"><defs
     id="defs7" /><sodipodi:namedview
     id="namedview5"
     pagecolor="#ffffff"
     bordercolor="#666666"
     borderopacity="1.0"
     inkscape:pageshadow="2"
     inkscape:pageopacity="0.0"
     inkscape:pagecheckerboard="0"
     showgrid="false"
     inkscape:zoom="1.7050781"
     inkscape:cx="255.70676"
     inkscape:cy="273.30126"
     inkscape:window-width="3840"
     inkscape:window-height="2066"
     inkscape:window-x="-11"
     inkscape:window-y="-11"
     inkscape:window-maximized="1"
     inkscape:current-layer="Layer_1" /><path
     d="m 408.58922,221.18423 h -13.73784 c -11.20719,0 -20.60676,-9.67071 -20.60676,-21.14904 0,-5.78435 2.44027,-11.02642 6.77854,-14.91278 l 8.85729,-8.67653 c 8.76691,-8.67653 8.76691,-22.86627 0,-31.5428 L 369.7256,124.92899 c -3.97675,-3.97675 -9.85148,-6.32664 -15.81659,-6.32664 -5.96512,0 -11.74947,2.34989 -15.81659,6.32664 l -8.49577,8.49576 c -4.06712,4.51903 -9.48996,6.9593 -15.36469,6.9593 -11.5687,0 -21.23942,-9.39957 -21.23942,-20.51637 v -13.82822 c 0,-12.201369 -9.85148,-22.685508 -22.14322,-22.685508 h -27.47568 c -12.29175,0 -22.05285,10.393759 -22.05285,22.685508 v 13.73784 c 0,11.1168 -9.67071,20.51637 -21.23942,20.51637 -5.78435,0 -11.1168,-2.44027 -15.00316,-6.68816 l -8.76691,-8.67652 c -3.97674,-4.06713 -9.85148,-6.32664 -15.81659,-6.32664 -5.96511,0 -11.74947,2.34989 -15.81659,6.32664 l -20.33561,19.88371 c -8.67654,8.67653 -8.67654,22.86627 0,31.45242 l 8.49576,8.49576 c 4.51903,4.06713 7.04968,9.48996 7.04968,15.27431 0,11.56871 -9.39957,21.14904 -20.60675,21.14904 h -13.73784 c -12.382133,0 -22.775892,9.67072 -22.775892,21.96247 v 13.73783 13.73784 c 0,12.20137 10.393759,21.96247 22.775892,21.96247 h 13.73784 c 11.20718,0 20.60675,9.67071 20.60675,21.14903 0,5.78436 -2.53065,11.20719 -7.04968,15.27431 l -8.49576,8.40539 c -8.67654,8.67653 -8.67654,22.86627 0,31.45242 l 20.15485,20.06447 c 3.97674,4.06712 9.85148,6.32664 15.81659,6.32664 5.96511,0 11.74947,-2.3499 15.81659,-6.32664 l 8.76691,-8.67653 c 3.79598,-4.24788 9.21881,-6.68816 15.00316,-6.68816 11.56871,0 21.23942,9.39958 21.23942,20.51638 v 13.73784 c 0,12.20137 9.7611,22.68551 22.14323,22.68551 h 27.47567 c 12.29175,0 22.05285,-10.39376 22.05285,-22.68551 v -13.73784 c 0,-11.1168 9.67071,-20.51638 21.23942,-20.51638 5.78435,0 11.20718,2.53066 15.36469,6.9593 l 8.49577,8.49577 c 4.06712,3.97674 9.85147,6.32664 15.81658,6.32664 5.96512,0 11.74947,-2.3499 15.81659,-6.32664 l 20.15486,-20.06447 c 8.67653,-8.67653 8.67653,-22.86627 0,-31.5428 l -8.85729,-8.67653 c -4.33827,-3.88636 -6.77854,-9.21881 -6.77854,-14.91278 0,-11.56871 9.39957,-21.14904 20.60676,-21.14904 h 13.73783 c 12.29175,0 21.05866,-9.67072 21.05866,-21.96247 V 256.88453 243.1467 c 0.18076,-12.29175 -8.58614,-21.96247 -20.87789,-21.96247 z m -79.26371,35.7003 v 0 c 0,39.85781 -32.26585,72.30441 -72.30441,72.30441 -40.03857,0 -72.30441,-32.4466 -72.30441,-72.30441 v 0 0 c 0,-39.8578 32.26584,-72.30441 72.30441,-72.30441 40.03856,0 72.30441,32.44661 72.30441,72.30441 z"
     id="path2"
     style="fill:#f79646;fill-opacity:1;stroke-width:0.903805" /><ellipse
     style="fill:none;fill-opacity:1;stroke:#f79646;stroke-width:16.999;stroke-miterlimit:4;stroke-dasharray:none;stroke-opacity:1"
     id="path157873"
     cx="256.88138"
     cy="256.63919"
     rx="246.02641"
     ry="246.02339" /></svg>
