<?xml version="1.0" encoding="UTF-8" standalone="no"?>
<!-- Created with Inkscape (http://www.inkscape.org/) -->

<svg
   width="210mm"
   height="297mm"
   viewBox="0 0 210 297"
   version="1.1"
   id="svg820"
   inkscape:version="1.2.1 (9c6d41e410, 2022-07-14)"
   sodipodi:docname="Icons.svg"
   xmlns:inkscape="http://www.inkscape.org/namespaces/inkscape"
   xmlns:sodipodi="http://sodipodi.sourceforge.net/DTD/sodipodi-0.dtd"
   xmlns:xlink="http://www.w3.org/1999/xlink"
   xmlns="http://www.w3.org/2000/svg"
   xmlns:svg="http://www.w3.org/2000/svg">
  <sodipodi:namedview
     id="namedview822"
     pagecolor="#ffffff"
     bordercolor="#000000"
     borderopacity="0.25"
     inkscape:showpageshadow="2"
     inkscape:pageopacity="0.0"
     inkscape:pagecheckerboard="0"
     inkscape:deskcolor="#d1d1d1"
     inkscape:document-units="mm"
     showgrid="false"
     showguides="false"
     inkscape:zoom="0.914906"
     inkscape:cx="202.20656"
     inkscape:cy="465.6216"
     inkscape:window-width="2880"
     inkscape:window-height="1526"
     inkscape:window-x="5749"
     inkscape:window-y="-11"
     inkscape:window-maximized="1"
     inkscape:current-layer="layer1" />
  <defs
     id="defs817">
    <clipPath
       clipPathUnits="userSpaceOnUse"
       id="clipPath1074">
      <path
         id="path1075"
         style="fill:#ffffff;fill-opacity:1;stroke:#000000;stroke-width:0.2;stroke-linecap:round;stroke-linejoin:round;stroke-miterlimit:0;stroke-dasharray:none;stroke-opacity:1"
         d="m 52.290187,98.69053 2.43e-4,0.142931 c 0.444278,0.321497 0.622662,0.695802 0.596005,1.001761 0.0076,0.0064 0.0166,0.01062 0.02386,0.01752 0.440478,-0.601797 0.737757,-1.224418 1.824909,-0.09991 0.07259,0.07509 0.05021,0.320178 -0.0045,0.605978 0.123303,0.14683 0.226326,0.30918 0.300657,0.47924 0.11796,0.26968 0.122287,0.5671 0.111845,0.86815 0.731204,0.39012 1.460852,0.7827 2.209534,1.13868 0.547247,0.19122 1.087053,0.40095 1.620538,0.627 -0.723317,-0.89058 -1.455054,-1.77444 -2.1931,-2.65262 -0.581669,-0.71222 -1.165988,-1.421711 -1.753026,-2.128881 z m 4.90302,-1.95e-4 c 0.288718,0.35145 0.578133,0.702085 0.865779,1.054559 1.106623,1.316966 2.213732,2.635116 3.27171,3.991896 0.112117,0.14378 0.256975,0.33826 0.388327,0.50978 0.02298,1.7e-4 0.04806,3.6e-4 0.07352,6.5e-4 0.316999,-0.32216 1.020505,-0.31124 1.373132,-0.33962 0.123255,0.002 0.626697,-0.0165 0.761431,0.0717 0.09225,0.0605 0.165498,0.11669 0.230201,0.17182 0.06372,-0.0702 0.122522,-0.12453 0.162958,-0.14104 0.159141,-0.065 0.335153,-0.074 0.502958,-0.11106 0.0011,0.002 0.0018,0.004 0.0028,0.006 0.0222,-0.0256 0.04369,-0.0516 0.066,-0.0771 l -2.19e-4,-4.8e-4 c -0.008,-0.008 4e-4,-0.014 0.01735,-0.0193 0.0037,-0.004 0.0069,-0.009 0.01063,-0.0128 -0.0013,-0.003 -0.0032,-0.007 -0.0049,-0.0108 -0.0233,-0.0578 0.08563,-0.0907 0.131439,-0.13296 0.03093,-0.0285 0.0719,-0.11017 0.09863,-0.0777 0.01172,0.0142 0.02216,0.0282 0.03356,0.0426 0.0272,-0.021 0.05446,-0.042 0.08122,-0.0636 0.04734,-0.0381 0.09252,-0.15656 0.139433,-0.11786 0.05761,0.0475 -0.04133,0.1564 -0.01041,0.2244 0.01172,0.0257 0.02291,0.0502 0.03475,0.0739 5.32e-4,-0.19634 0.0396,-0.4007 0.03461,-0.59584 0.111487,-0.0461 0.214186,-0.12936 0.334457,-0.13836 0.05393,-0.004 0.105861,-0.003 0.155801,0.002 0.02857,-0.0121 0.0574,-0.0258 0.08519,-0.0399 0.0589,-0.0297 0.114498,-0.0652 0.171762,-0.0979 0.04381,-0.0281 0.07611,-0.0494 0.106363,-0.0682 0.04978,-0.0488 0.08664,-0.0814 0.09119,-0.0766 0.0089,0.009 0.01514,0.0148 0.02386,0.0238 0.03939,-0.004 0.06864,0.024 0.108835,0.0834 0.04826,0.0359 0.09483,0.0742 0.140568,0.11322 0.140253,-0.20745 0.270741,-0.42106 0.383301,-0.64417 0.102801,-0.20378 0.229266,-0.33655 0.356376,-0.41115 0.0013,-0.006 0.0029,-0.0127 0.0049,-0.0192 -0.10331,-0.0334 -0.220071,-0.0712 -0.365653,-0.11765 -0.04108,-0.0131 -0.04667,-0.15846 -0.04372,-0.29857 -0.0309,-0.0226 -0.06258,-0.045 -0.09421,-0.0662 0.01762,-0.048 0.03849,-0.0985 0.0622,-0.14916 0.0019,-0.0294 0.0049,-0.0566 0.02853,-0.0584 l 0.0012,5e-5 c 0.06165,-0.11721 0.141941,-0.22839 0.24855,-0.29742 0.06953,-0.12514 0.135911,-0.24898 0.15604,-0.27866 0.19364,-0.28571 0.415034,-0.41601 0.594811,-0.42356 0.299625,-0.0126 0.484905,0.31545 0.238864,0.8354 -0.05183,0.10954 -0.09533,0.22649 -0.14219,0.34162 0.0091,0.0985 0.0031,0.20299 -0.01029,0.30835 -0.05144,0.17132 -0.07322,0.2681 -0.141716,0.30394 0.102349,0.14713 0.125239,0.39139 -0.01067,0.70472 -0.27666,0.63779 -0.691277,1.20725 -1.099548,1.76604 -0.08697,0.12931 -0.852384,1.01075 -1.084405,0.79136 -0.04523,-0.0428 -0.08645,-0.0821 -0.124827,-0.1198 6.56e-4,0.004 0.002,0.007 0.0023,0.0103 0.02426,0.10831 -0.106741,0.17792 -0.205819,0.25531 l 6.024859,2.9e-4 1.79e-4,-6.682121 z m 10.227484,3.174085 c 0.0062,0.002 0.01151,0.003 0.01715,0.005 0.0064,-0.003 0.01253,-0.005 0.01903,-0.008 -0.008,-0.009 -0.01582,-0.0182 -0.02484,-0.0284 -0.0044,0.0109 -0.0084,0.0213 -0.01133,0.0313 z m -12.645771,2.80471 c -0.04182,0.21025 -0.086,0.42007 -0.13298,0.62918 0.03875,0.0235 0.07691,0.0474 0.112431,0.0738 l 1.878998,3.8e-4 c 0.121521,-0.21806 0.192312,-0.51995 0.423494,-0.55572 0.08496,-0.0132 0.166631,-0.0103 0.246556,-7.9e-4 -0.227878,-0.0559 -0.455556,-0.11756 -0.68495,-0.19449 -0.07137,0.0778 -0.157923,0.15939 -0.266551,0.24658 -0.147559,0.11841 -1.242356,-0.12309 -1.389382,-0.1508 -0.06323,-0.0138 -0.124825,-0.0329 -0.187616,-0.0481 z m 1.086008,-0.10584 c -0.0019,0.0124 -0.0042,0.0251 -0.0063,0.0375 -0.0013,0.0111 0.02951,-0.02 0.02066,-0.027 -0.0044,-0.004 -0.0099,-0.007 -0.01441,-0.0105 z m 1.685491,0.31026 c 0.254292,0.098 0.479138,0.29117 0.675258,0.49916 l 0.699337,7e-5 c -0.03054,-0.10078 -0.05323,-0.18882 -0.06631,-0.26333 -0.03202,-0.005 -0.06413,-0.009 -0.09614,-0.0142 -0.41512,-0.0659 -0.815069,-0.13414 -1.212146,-0.22169 z m 0.04658,0.44599 c 0.0021,0.0176 0.0029,0.0352 0.0047,0.0529 l 0.04046,3.6e-4 c -0.01176,-0.0177 -0.02535,-0.0359 -0.04521,-0.0532 z m 9.504565,-4.20115 2.19e-4,4.8e-4 c -0.01841,-5.3e-4 -0.04308,0.0322 -0.04474,0.0527 0.0091,-5.3e-4 0.01846,2.7e-4 0.02759,-0.002 0.0088,-0.0107 0.02062,-0.0264 0.03315,-0.0457 -0.0038,-0.002 -0.0075,-0.003 -0.01137,-0.005 -0.0016,-4.2e-4 -0.0032,-5.9e-4 -0.0049,-7e-4 z m -0.01406,0.38499 c 0.01072,0.0344 0.01552,0.0728 0.04196,0.0962 0.09386,0.0808 0.187515,0.18149 0.300765,0.22716 -0.06887,-0.0774 -0.16382,-0.17444 -0.304052,-0.29434 -0.01271,-0.01 -0.02593,-0.0193 -0.03871,-0.029 z m 0.374064,0.2773 c -0.009,0.0171 -0.01756,0.0339 -0.02404,0.0495 0.01893,0.007 0.03827,0.0123 0.05837,0.016 0.01517,-0.006 0.03026,-0.0117 0.04546,-0.0161 -0.02704,-0.0157 -0.05359,-0.0322 -0.0798,-0.0494 z m -1.736185,1.27317 c -0.03197,0.0218 -0.0041,0.0347 0.150928,-0.0226 0.01081,-0.004 0.02184,-0.009 0.03286,-0.0126 -0.0108,-0.002 -0.02134,-0.003 -0.03203,-0.003 -0.03745,-5e-4 -0.07372,0.007 -0.102343,0.0159 -0.02129,0.007 -0.03878,0.0153 -0.0494,0.0224 z m -1.344056,1.34415 c 0.0036,0.006 0.0074,0.0112 0.01094,0.0166 0.0078,-0.009 0.01544,-0.0185 0.02322,-0.0276 -0.01159,0.003 -0.02275,0.007 -0.03417,0.011 z m -0.895449,0.6913 c -0.0079,0.0154 -0.01639,0.0313 -0.02489,0.0476 0.09847,0.0705 0.19029,0.0526 0.207378,0.0204 -0.009,-0.0134 -0.01691,-0.0274 -0.02458,-0.0416 -0.01784,-0.009 -0.04229,-0.0176 -0.08151,-0.022 -0.02537,-0.003 -0.05068,-0.003 -0.07617,-0.004 z m -0.132391,0.28324 0.530276,2.6e-4 c -0.03259,-0.0247 -0.06392,-0.0504 -0.09357,-0.0772 -0.07865,0.0343 -0.248646,0.0586 -0.436709,0.077 z m 1.889949,-0.008 2.19e-4,4.8e-4 c -0.0051,0.003 -0.0097,0.006 -0.01466,0.009 l 0.0414,-7e-5 c 0.02332,-0.0163 0.04633,-0.0334 0.06797,-0.0428 0.0016,-9.1e-4 0.0013,-9e-4 0.002,-0.002 -0.0035,-7.3e-4 -0.0721,0.0217 -0.09683,0.0355 z m 0.100122,-0.037 c -1.39e-4,0 -0.0018,5.3e-4 -0.0026,0.002 9e-5,4e-5 0.003,-8e-4 0.003,-8e-4 z" />
    </clipPath>
    <clipPath
       clipPathUnits="userSpaceOnUse"
       id="clipPath1629">
      <path
         id="path1630"
         style="fill:#ff0000;fill-opacity:1;stroke:none;stroke-width:0.2;stroke-linecap:round;stroke-linejoin:round;stroke-miterlimit:0;stroke-dasharray:none;stroke-opacity:1"
         d="m 137.65568,177.81654 v 0.2036 c 0.0351,-0.003 0.0704,-0.007 0.1049,-0.004 0.46693,0.0334 0.85664,0.59199 0.61547,1.49035 -0.006,0.023 -0.0111,0.0462 -0.017,0.0692 0.15751,-0.014 0.32917,-0.027 0.53536,-0.0393 0.15213,-0.009 0.10563,0.28629 0.15193,0.4315 0.2412,0.75741 0.41396,1.53413 0.63201,2.29805 0.0889,0.34144 0.17271,0.68507 0.25889,1.02784 0.15214,0.0381 0.30643,0.0699 0.46561,0.0899 0.48556,0.0612 0.83184,-0.0117 1.31,-0.0708 0.44359,-0.14023 0.98186,-0.24046 1.27279,-0.6506 0.2547,-0.35896 0.23025,-0.95233 0.26045,-1.35651 -0.0158,-0.25747 -0.0152,-0.51612 -0.0476,-0.77205 -0.0855,-0.67957 -0.34448,-1.7803 -0.49196,-2.39107 -0.0263,-0.10909 -0.0569,-0.2171 -0.0837,-0.32607 z m 6.69003,0 c 0.17964,0.74878 0.43651,1.84915 0.52142,2.63343 0.0362,0.33591 0.0273,0.67475 0.0419,1.01234 -0.0229,0.21334 -0.0383,0.40601 -0.0579,0.59118 0.0189,-0.0573 0.0374,-0.10991 0.0548,-0.14986 0.0712,-0.16382 0.0989,-0.40369 0.26665,-0.46509 0.0436,-0.0159 0.0843,-0.029 0.12454,-0.0419 0.008,-0.0948 0.0446,-0.17239 0.10077,-0.22789 -0.17476,-0.41939 0.0166,-0.6914 0.27699,-0.678 0.16141,0.008 0.34896,0.12702 0.49196,0.38654 0.0225,-0.0126 0.0413,-0.0219 0.0667,-0.0372 0.0672,0.011 0.13654,0.0131 0.20154,0.0331 0.19515,0.0601 0.27168,0.44324 0.38085,0.59324 0.0987,0.18691 0.1992,0.37288 0.29818,0.55966 0.0128,0.007 0.0187,0.0234 0.0228,0.0429 0.099,0.18746 0.19601,0.37627 0.28783,0.56741 0.12719,0.27687 0.24127,0.55889 0.33487,0.84904 0.10061,0.26702 0.21379,0.52931 0.30179,0.80099 0.0516,0.14802 0.10543,0.29531 0.15968,0.44235 0.14682,0.26206 0.29401,0.52391 0.4408,0.78599 0.0265,0.0473 0.0525,0.0945 0.0791,0.1416 h 2.80086 v -7.83983 z m 1.2082,6.27507 c -0.0325,0.13585 -0.0947,0.39948 -0.18397,0.76377 0.0736,0.12473 0.14615,0.25001 0.21911,0.37517 0.0174,-9e-5 0.0383,-0.001 0.0543,-0.001 0.0457,-0.0194 0.0986,-0.0398 0.15089,-0.0599 -0.001,-0.008 -0.003,-0.0161 -0.003,-0.0238 -0.0789,-0.35141 -0.15837,-0.70272 -0.2372,-1.05419 z m -5.09943,1.05781 -5.3e-4,5.3e-4 c 0.0263,0.0609 0.016,0.0435 0.0693,0.0811 l 0.006,-0.003 c -0.0226,-0.0346 -0.0468,-0.0635 -0.0749,-0.0786 z m -0.0708,0.0434 c 0.007,0.0324 0.0144,0.0648 0.0217,0.0972 0.0354,-0.0173 0.0707,-0.035 0.10594,-0.0527 -0.0418,-0.0162 -0.0851,-0.0296 -0.12764,-0.0444 z m 1.81953,0.42478 c -0.0207,0.0134 -0.037,0.0254 -0.0579,0.0388 h 0.13642 c -0.0258,-0.009 -0.0519,-0.0226 -0.0785,-0.0388 z" />
    </clipPath>
    <clipPath
       clipPathUnits="userSpaceOnUse"
       id="clipPath1979">
      <path
         id="path1980"
         style="fill:#ff0000;fill-opacity:1;stroke:none;stroke-width:0.2;stroke-linecap:round;stroke-linejoin:round;stroke-miterlimit:0;stroke-dasharray:none;stroke-opacity:1"
         d="m 109.03506,164.31858 -1.48931,5.3e-4 c 0.054,0.0978 0.10043,0.20301 0.14107,0.31161 0.12151,-0.13745 0.32806,-0.12376 0.64079,-0.009 0.15504,-1.6e-4 0.30217,0.0477 0.3669,0.19327 0.021,0.0472 -0.007,0.10301 -0.0103,0.1545 -0.0207,0.0343 -0.0202,0.0336 -0.031,0.0517 0.033,0.13186 0.012,0.2771 -0.0687,0.32711 -0.0429,0.0266 -0.0896,0.0445 -0.13797,0.0584 -0.009,0.0668 -0.0912,0.0894 -0.21911,0.0915 -0.14245,0.0604 -0.27117,0.0963 -0.37569,0.12041 0.0285,0.0468 0.0261,0.0924 0.0134,0.14004 0.0921,-0.0125 0.14744,-0.0107 0.19275,-0.046 0.004,-0.005 0.007,-0.011 0.0109,-0.016 0.0204,-0.0272 0.0731,-0.11405 0.0589,-0.0832 -0.0231,0.0499 -0.045,0.0799 -0.0698,0.0992 -0.0505,0.0785 -0.0767,0.19632 -0.16536,0.21446 -0.0291,0.006 -0.0553,0.0109 -0.0816,0.016 -3e-5,1.7e-4 2e-5,2.6e-4 0,5.3e-4 -0.0432,0.29108 -0.15346,0.14471 -0.26769,0.0434 -0.0946,0.01 -0.15904,0.007 -0.20774,-0.0119 -0.0153,0.0252 -0.0298,0.0597 -0.0429,0.10593 -0.0248,0.0879 -0.093,0.16292 -0.091,0.25322 -0.0762,-0.0663 -0.15748,-0.13039 -0.23978,-0.19069 -0.0591,-0.0389 -0.12165,-0.0725 -0.17725,-0.11627 -0.009,-0.007 -0.0168,-0.0142 -0.0248,-0.0217 v 0.62166 h 2.27531 z m -0.58859,1.08831 c 7.9e-4,-0.006 10e-4,-0.0118 10e-4,-0.0181 -0.0204,0.0118 -0.0408,0.0224 -0.061,0.0331 0.0203,-0.004 0.0401,-0.009 0.06,-0.015 z m 10e-4,-0.0181 c 0.007,-0.004 0.0132,-0.007 0.0202,-0.0114 0.0317,-0.0187 0.0153,-0.0627 0.002,-0.10542 -0.009,10e-4 -0.0237,0.005 -0.0419,0.0103 -0.004,0.004 -0.008,0.007 -0.0124,0.0114 0.0195,0.0373 0.031,0.0695 0.032,0.0951 z m 0.0222,-0.11679 c 0.0501,-0.005 0.002,0.0362 0.0739,-0.076 0.0423,-0.0655 0.052,-0.0793 0.0636,-0.0982 -0.0505,0.0559 -0.0984,0.10618 -0.14365,0.15038 0.002,0.008 0.004,0.0157 0.006,0.0238 z m 0.18346,-0.25063 c -0.0174,-0.0695 -0.0499,-0.13528 -0.0966,-0.18138 0.0331,0.0818 0.0583,0.16879 0.0739,0.2191 0.005,-0.008 0.0148,-0.0245 0.0227,-0.0377 z m -0.0227,0.0377 c -0.005,0.008 -0.0193,0.0326 -0.0228,0.0382 0.009,-0.01 0.0169,-0.0183 0.0259,-0.0284 -7.9e-4,-0.002 -0.002,-0.007 -0.003,-0.01 z m -1.59164,-0.4103 c -0.0518,0.011 -0.10275,0.0358 -0.15348,0.0599 0.082,0.0131 0.17734,0.0351 0.15348,-0.0599 z m -0.25993,0.10387 c -0.006,0.002 -0.0128,0.004 -0.0191,0.005 v 0.11989 c 0.018,-0.0112 0.0364,-0.0213 0.0553,-0.0305 -0.0176,-0.0307 -0.0335,-0.0614 -0.0362,-0.0941 z m 0.3452,0.96376 c -0.002,5.3e-4 -0.005,0.001 -0.007,0.002 -0.006,0.002 0.002,0.005 0.0124,0.007 -0.002,-0.003 -0.003,-0.005 -0.005,-0.008 z" />
    </clipPath>
    <clipPath
       clipPathUnits="userSpaceOnUse"
       id="clipPath1940">
      <path
         id="path1941"
         style="fill:#ff0000;fill-opacity:1;stroke:none;stroke-width:0.2;stroke-linecap:round;stroke-linejoin:round;stroke-miterlimit:0;stroke-dasharray:none;stroke-opacity:1"
         d="m 113.85926,162.12811 v 0.53175 c 0.12052,-0.0753 0.27221,-0.0959 0.4532,-0.0176 0.008,0.004 0.0257,0.0129 0.0403,0.0207 0.006,-0.002 0.012,-0.004 0.0181,-0.006 0.0194,-0.0378 0.042,-0.0737 0.0677,-0.10749 0.0369,-0.0668 0.0694,-0.13704 0.10283,-0.2067 -0.10674,-0.0739 -0.21645,-0.14403 -0.32607,-0.21445 z m 0.10697,1.3932 c -10e-4,2.6e-4 -0.002,0.001 -0.003,0.002 -0.0374,0.0315 -0.072,0.0561 -0.10438,0.0749 v 0.16899 c 0.0416,-0.0638 0.10489,-0.11782 0.17156,-0.17002 -0.0191,-0.0229 -0.037,-0.0464 -0.0501,-0.0724 -0.004,-0.002 -0.007,-0.003 -0.0104,-0.003 l 5.3e-4,-5.3e-4 c -0.002,-1.4e-4 -0.003,-2.6e-4 -0.004,0 z m 1.64796,0.50901 c -0.0101,0.0241 -0.0214,0.0484 -0.0351,0.0729 -0.0515,0.0916 -0.14353,0.14871 -0.23668,0.20464 -0.005,0.0216 -0.0105,0.043 -0.0176,0.0651 -0.0103,0.0323 -0.0276,0.0603 -0.0481,0.0863 0.005,0.0333 0.002,0.0667 -0.0103,0.0992 -0.0157,0.043 -0.0371,0.0827 -0.0625,0.11989 0.007,0.006 0.0132,0.0119 0.0196,0.0181 0.15306,0.14944 0.21486,0.34547 0.20361,0.53795 0.005,0.0125 0.01,0.0253 0.0139,0.0382 h 0.1726 z m -1.68362,1.13585 c -0.0257,0.0287 -0.0268,0.0607 -0.0119,0.0987 -5.3e-4,-0.0295 0.004,-0.0629 0.0119,-0.0987 z" />
    </clipPath>
    <clipPath
       clipPathUnits="userSpaceOnUse"
       id="clipPath1943">
      <path
         id="path1944"
         style="fill:#ff0000;fill-opacity:1;stroke:none;stroke-width:0.2;stroke-linecap:round;stroke-linejoin:round;stroke-miterlimit:0;stroke-dasharray:none;stroke-opacity:1"
         d="m 113.93057,165.16617 c -0.0257,0.0287 -0.0268,0.0607 -0.0119,0.0987 -5.3e-4,-0.0295 0.004,-0.0629 0.0119,-0.0987 z m 0.0506,0.20102 c 0.0182,0.0248 0.038,0.051 0.0605,0.0801 0.0114,0.003 0.0235,0.006 0.0357,0.008 -0.001,-0.0238 -0.001,-0.0487 -5.3e-4,-0.0744 -0.0275,-0.004 -0.0547,-0.007 -0.0837,-0.0113 -0.004,-5.3e-4 -0.008,-10e-4 -0.0119,-0.002 z m -0.11265,0.32918 v 0.19688 h 0.37723 c -0.0164,-0.0167 -0.0327,-0.0334 -0.0506,-0.0506 -0.0167,-0.0459 -0.0368,-0.091 -0.0553,-0.13642 -0.0101,0.002 -0.02,0.004 -0.0305,0.006 -0.0968,0.0167 -0.17526,0.009 -0.24081,-0.016 z" />
    </clipPath>
    <clipPath
       clipPathUnits="userSpaceOnUse"
       id="clipPath1982">
      <path
         id="path1983"
         style="fill:#ff0000;fill-opacity:1;stroke:none;stroke-width:0.2;stroke-linecap:round;stroke-linejoin:round;stroke-miterlimit:0;stroke-dasharray:none;stroke-opacity:1"
         d="m 108.62258,159.27245 -4.34006,-0.003 c 0.0539,0.11826 0.0994,0.24836 0.1667,0.34854 0.003,0.0191 0.006,0.0382 0.009,0.0573 0.0752,0.0544 0.14945,0.12861 0.21925,0.22592 0.20805,0.29 0.40533,0.58901 0.6308,0.86611 l 2.5e-4,7e-4 c 0.14373,0.007 0.24544,0.0782 0.34141,0.19202 0.0742,-0.0852 0.17124,-0.12921 0.27297,-0.12744 0.12655,0.002 0.25998,0.0753 0.36643,0.22262 0.0556,-0.002 0.11491,-0.006 0.17846,-0.009 0.0181,-9.9e-4 0.11669,0.19113 0.19574,0.31594 0.0105,0.0102 0.0204,0.0232 0.03,0.037 l 9.6e-4,4.5e-4 c 0.0625,-0.0204 0.125,-0.0415 0.18763,-0.0614 0.0301,0.0405 0.0579,0.083 0.0864,0.12461 -0.0152,-0.0206 -0.0329,-0.0355 -0.0553,-0.0306 -0.14098,0.031 -0.25434,0.0517 -0.34792,0.067 0.003,0.0303 0.006,0.0614 0.008,0.0923 0.0885,-0.009 0.16407,-0.0192 0.22818,-0.0286 0.041,-0.0183 0.0817,-0.0361 0.12357,-0.0527 0.0152,-0.006 0.0176,0.01 0.016,0.0315 0.0296,-0.004 0.0553,-0.009 0.0779,-0.0114 6e-5,2.6e-4 2e-5,5.9e-4 -0.002,-4.2e-4 -0.009,-0.008 -0.0173,-0.0193 -0.0255,-0.0308 0.006,0.008 0.0236,0.0264 0.0276,0.0312 1.2e-4,-1e-5 4.4e-4,2.9e-4 4.7e-4,2.2e-4 l 4.8e-4,2.3e-4 c 0.16144,-0.017 0.15519,0.0279 0.17304,0.27557 -0.0372,0.43797 0.0193,0.34306 -0.84722,0.57002 -0.0391,0.0102 -0.0896,-0.0296 -0.14125,-0.087 -0.0315,0.0103 -0.0636,0.0193 -0.0957,0.0275 -0.0678,0.0172 -0.11639,-0.058 -0.16834,-0.11803 -0.009,0.002 -0.0187,0.004 -0.0278,0.006 -0.16055,0.23173 -0.12274,0.25905 -0.31789,0.076 -0.0563,-0.0567 -0.14841,-0.14957 -0.14741,-0.15158 l 0.006,-0.009 c -0.0204,-0.0116 -0.0481,-0.0235 -0.064,-0.0364 -0.15612,0.0285 -0.21313,-0.13522 -0.37003,-0.41164 -0.001,-0.002 -0.004,-0.005 -0.006,-0.007 -0.0138,-0.007 -0.0427,-0.0215 -0.0613,-0.0312 0.0164,0.29954 0.0275,0.61746 0.0337,0.76111 2.8e-4,0.008 0.013,0.30975 0.0187,0.62788 0.0631,0.0346 0.12527,0.0757 0.18369,0.12183 0.005,-5.7e-4 0.009,-8.1e-4 0.0143,-0.001 -0.0545,-0.16676 -0.0804,-0.32415 -0.0191,-0.37219 0.24947,-0.19554 0.59793,-0.21147 0.89675,-0.31715 0.0856,0.10991 0.12363,0.13721 0.16833,0.2528 0.016,0.0415 0.0273,0.0843 0.0396,0.12712 2e-5,5.9e-4 -7e-5,0.002 3.1e-4,0.003 0.0664,0.11251 0.13638,0.2241 0.19769,0.33971 0.0178,0.0313 0.22806,0.37043 0.21696,0.38132 -0.0122,0.012 -0.0247,0.0234 -0.0371,0.0351 0.31324,-0.12812 0.24877,-0.0865 0.0503,0.0134 0.005,0.0103 0.0105,0.0215 0.0138,0.0276 0.0216,0.039 0.0448,0.0775 0.0661,0.11677 0.009,0.0164 0.0151,0.029 0.0232,0.0441 0.0664,-0.0578 0.14507,-0.0906 0.22725,-0.0958 0.21803,-0.0139 0.45693,0.16414 0.53785,0.56597 9.4e-4,-1.4e-4 0.002,-2.8e-4 0.003,-3.1e-4 l 7e-4,-2.5e-4 c 0.12981,0.001 0.20869,0.15804 0.38906,0.44401 0.0315,0.0598 0.0608,0.11309 0.0864,0.16229 0.0624,0.005 0.12787,0.0145 0.19722,0.03 0.12285,0.0275 0.24496,0.0677 0.36186,0.1194 z m -1.98463,2.07375 c -0.009,-0.003 -0.0177,-0.005 -0.0278,-0.003 l -4.8e-4,-2.3e-4 c -0.0202,0.004 -0.0406,0.008 -0.0607,0.0125 0.003,0.0251 0.005,0.0502 0.009,0.0883 0.043,-0.0141 0.0859,-0.0281 0.12891,-0.0422 -0.008,-0.0118 -0.0163,-0.0254 -0.025,-0.0392 -0.007,-0.007 -0.0157,-0.013 -0.0242,-0.0165 z m 0.0533,0.0554 c -0.002,2.8e-4 -0.003,-4.1e-4 -0.005,0.001 0.021,0.0305 0.04,0.0539 0.0535,0.0623 -0.0177,-0.0163 -0.0332,-0.0407 -0.0489,-0.0636 z m -0.14417,-0.0456 c -0.0367,0.008 -0.0732,0.0187 -0.10933,0.0297 0.005,0.0184 0.0101,0.0369 0.014,0.0563 0.003,0.0115 0.005,0.0232 0.008,0.0347 0.0312,-0.0102 0.0616,-0.0205 0.0927,-0.0307 l 2.3e-4,-4.8e-4 c -8e-4,-0.0223 -0.003,-0.0568 -0.006,-0.0896 z m 0.005,0.14622 c -0.0297,0.005 -0.0569,0.009 -0.0825,0.0126 0.003,0.0125 0.005,0.025 0.008,0.0375 0.0476,-0.004 0.0684,-0.0121 0.0744,-0.0501 z m 0.16251,2.10438 c -0.0275,0.0138 -0.0655,0.0318 -0.0971,0.0474 0.0139,0.018 0.024,0.031 0.0391,0.0504 0.0282,-0.0142 0.0571,-0.0289 0.085,-0.0434 -0.009,-0.0184 -0.0183,-0.0358 -0.027,-0.0544 z m -1.43464,-0.5401 c -7.6e-4,-0.002 -0.001,-8e-4 -0.001,3e-5 l -4.8e-4,-2.3e-4 c -1.5e-4,0.004 0.002,0.0199 4e-4,0.0259 -7e-5,0.002 -0.003,-9.4e-4 -0.004,-0.002 0.009,0.0133 0.0179,0.0267 0.0269,0.04 -0.006,-0.0221 -0.0119,-0.0438 -0.0214,-0.0637 z m -0.30802,0.71915 c -0.002,0.005 -0.005,0.0109 -0.007,0.0126 -0.054,0.038 -0.10034,0.0676 -0.14837,0.0981 -0.01,0.0311 -0.0306,0.0521 -0.0635,0.0609 0.0681,0.30521 0.13799,0.61012 0.21582,0.91303 0.0784,0.11975 0.16792,0.26792 0.0745,0.34173 -0.27593,0.21856 -0.67757,0.1913 -1.01628,0.2872 -0.0149,-0.0406 -0.0285,-0.0813 -0.0425,-0.12221 -0.0329,0.22362 -0.0682,0.42911 -0.0764,0.45748 -0.0337,0.11664 -0.0319,0.30377 -0.14993,0.33208 -0.006,0.002 -0.0122,0.002 -0.0184,0.003 l 2.78446,3.4e-4 c -0.004,-0.008 -0.009,-0.0168 -0.0133,-0.0251 -0.0369,-0.0603 -0.0792,-0.11736 -0.11089,-0.18066 -0.0544,-0.10879 -0.0547,-0.24406 -0.0443,-0.37436 -0.10006,-0.16807 -0.16588,-0.35744 -0.24479,-0.58801 -0.003,-0.10125 -0.0416,-0.21571 -0.0644,-0.32441 -0.0671,5.3e-4 -0.13395,-0.001 -0.20066,-0.0104 -0.0717,-0.009 -0.0816,-0.11951 -0.11993,-0.18091 -0.0276,-0.0441 -0.0651,-0.10168 -0.1038,-0.16419 -0.0364,-0.0138 -0.0739,-0.0301 -0.1136,-0.0523 -0.23648,-0.19125 -0.28854,-0.0772 -0.3414,-0.0852 -0.0161,0.0103 -0.0322,0.0218 -0.0471,0.0333 -0.016,-0.0635 -0.0351,-0.12688 -0.0552,-0.18986 -0.0242,-0.0574 -0.0553,-0.13879 -0.093,-0.24189 z m 1.36572,1.16614 -2.3e-4,4.8e-4 c -0.0144,0.01 -0.0102,0.0241 0.0128,0.0529 0.006,-0.001 0.0121,-0.002 0.0179,-0.004 -0.007,-0.0133 -0.0165,-0.0306 -0.0225,-0.042 -0.003,-0.002 -0.006,-0.005 -0.008,-0.007 z m 1.51738,0.99306 c -0.0498,0.0206 -0.0964,0.034 -0.14046,0.0424 -0.0551,0.0134 -0.11606,0.0213 -0.18327,0.0217 0.018,0.058 0.009,0.10075 -0.0142,0.13835 0.004,0.007 0.009,0.0149 0.0125,0.0219 l 0.34837,-2e-5 c -0.008,-0.0747 -0.0121,-0.15067 -0.0229,-0.22438 z m -0.96626,-0.10446 c -0.0185,-0.006 -0.0372,-0.0111 -0.0563,-0.0151 -0.0107,-0.002 0.0154,0.0202 0.0261,0.0186 0.01,-10e-4 0.0202,-0.002 0.0302,-0.004 z m 0.16753,0.32494 c -0.0272,-0.0128 -0.0547,-0.0254 -0.0823,-0.0375 -0.0224,0.004 -0.048,0.0169 -0.0781,0.0421 l 0.16344,-2.1e-4 c -0.001,-0.001 -0.002,-0.003 -0.003,-0.004 z m -4.92947,-1.97795 c -0.0163,0.0798 -0.0338,0.16463 -0.0474,0.233 -0.0464,0.23151 0.0643,0.56764 -0.11179,0.70867 0.003,0.0517 -0.009,0.0886 -0.0563,0.0894 -0.0278,5.2e-4 -0.0568,-10e-4 -0.0847,-0.002 -0.13176,0.0778 -0.24479,0.13679 -0.34469,0.18279 l -6e-5,0.7698 1.80081,-3.7e-4 c -0.16076,-0.0232 -0.32201,-0.0585 -0.48181,-0.0696 -0.0471,-0.17575 -0.10786,-0.34847 -0.14852,-0.52559 -0.27558,0.0885 -0.32372,-0.20121 -0.32751,-0.49957 -0.1167,-0.0249 -0.10289,-0.25454 -0.1296,-0.38249 -0.0347,-0.16601 -0.0519,-0.33489 -0.0685,-0.50393 z m 0.7726,1.45821 c -0.0127,0.003 -0.0257,0.006 -0.0384,0.009 -0.0115,0.003 0.0319,0.0218 0.0349,0.008 0.002,-0.006 0.002,-0.0119 0.004,-0.0172 z" />
    </clipPath>
    <clipPath
       clipPathUnits="userSpaceOnUse"
       id="clipPath1907">
      <path
         id="path1907"
         style="fill:#ff0000;fill-opacity:1;stroke:none;stroke-width:0.2;stroke-linecap:round;stroke-linejoin:round;stroke-miterlimit:0;stroke-dasharray:none;stroke-opacity:1"
         d="m 106.80485,156.23594 v 5.12734 c 0.0253,-0.008 0.0506,-0.0168 0.076,-0.0248 0.0301,0.0405 0.0578,0.0829 0.0863,0.12454 -0.0152,-0.0206 -0.0319,-0.0359 -0.0543,-0.031 -0.0381,0.008 -0.0738,0.0157 -0.108,0.0227 v 0.10645 c 0.0397,-0.0177 0.0794,-0.0351 0.11989,-0.0512 0.0152,-0.006 0.0176,0.0101 0.016,0.0315 0.0299,-0.004 0.0558,-0.008 0.0786,-0.0109 0.001,0.002 0.001,0.002 -0.002,-5.3e-4 -0.009,-0.008 -0.0177,-0.0193 -0.0258,-0.031 0.006,0.008 0.0234,0.0267 0.0274,0.0315 0.16257,-0.0174 0.15626,0.0277 0.17415,0.27596 -0.0287,0.33739 -0.006,0.35959 -0.38861,0.45527 v 1.40198 h 3.12488 v -7.42797 z" />
    </clipPath>
    <clipPath
       clipPathUnits="userSpaceOnUse"
       id="clipPath1850">
      <path
         id="path1850"
         style="fill:#ff0000;fill-opacity:1;stroke:none;stroke-width:0.2;stroke-linecap:round;stroke-linejoin:round;stroke-miterlimit:0;stroke-dasharray:none;stroke-opacity:1"
         d="m 107.39241,155.49955 v 6.44509 h 3.28249 v -6.44509 z m 2.17196,2.61173 c 0.23943,-2e-5 0.48004,0.23446 0.47904,0.70435 0,0.0761 0.001,0.15237 0.002,0.22841 0.0234,0.0257 0.0265,0.0756 0.0238,0.15296 0.006,0.004 0.0123,0.009 0.0176,0.015 0.12559,-0.006 0.13043,-0.002 0.0615,0.0336 0.001,0.0694 0.009,0.26195 0,0.26459 -0.005,0.001 -0.009,0.002 -0.0139,0.004 0.0131,0.0948 0.0142,0.12078 -0.0625,0.11111 0.002,0.0119 0.004,0.0246 0.008,0.0444 -0.0582,-0.007 -0.11708,-0.0125 -0.1757,-0.0176 -0.12422,0.0228 -0.2508,0.0342 -0.37775,0.0439 -0.25326,0.0827 -0.33733,0.11027 -0.37362,0.031 -0.0253,0.003 -0.0508,0.005 -0.076,0.008 0,-0.0197 -0.003,-0.10908 -0.006,-0.19276 -0.0269,-0.0128 -0.014,-0.0558 -0.003,-0.0971 -0.002,-0.0751 -0.002,-0.14001 0.003,-0.14159 10e-4,-5.3e-4 0.002,-5.3e-4 0.004,-0.001 -6e-5,-0.009 7e-5,-0.0177 5.3e-4,-0.0264 1.3e-4,-0.003 2.6e-4,-0.005 5.3e-4,-0.007 -0.014,-0.11709 -0.0204,-0.18038 0.0269,-0.19534 -0.003,-0.0858 -0.005,-0.17203 -0.007,-0.25786 h -5.3e-4 c -0.007,-0.46983 0.23082,-0.70434 0.47025,-0.70435 z" />
    </clipPath>
    <clipPath
       clipPathUnits="userSpaceOnUse"
       id="clipPath1851">
      <path
         id="path1851"
         style="fill:#ff0000;fill-opacity:1;stroke:none;stroke-width:0.2;stroke-linecap:round;stroke-linejoin:round;stroke-miterlimit:0;stroke-dasharray:none;stroke-opacity:1"
         d="m 110.15038,156.56822 v 2.6417 c 0.0575,-5.3e-4 0.0517,0.007 0,0.0346 v 0.0796 c 0.002,0.0734 0.004,0.15747 0,0.18036 v 2.91558 h 0.67334 v -5.85184 z" />
    </clipPath>
    <clipPath
       clipPathUnits="userSpaceOnUse"
       id="clipPath1909">
      <path
         id="path1910"
         style="fill:#ff0000;fill-opacity:1;stroke:none;stroke-width:0.2;stroke-linecap:round;stroke-linejoin:round;stroke-miterlimit:0;stroke-dasharray:none;stroke-opacity:1"
         d="m 106.455,161.45113 c 0.002,0.008 0.004,0.0162 0.006,0.0243 0.0248,-0.008 0.0496,-0.0162 0.0744,-0.0243 z m 0.27285,0 c 0.005,0.005 0.01,0.009 0.014,0.0119 -0.004,-0.004 -0.008,-0.008 -0.0114,-0.0119 z m 0.094,0 c -0.0998,0.0207 -0.18436,0.0362 -0.25683,0.0481 0.003,0.0303 0.006,0.0611 0.008,0.092 0.0885,-0.01 0.16379,-0.019 0.2279,-0.0284 0.041,-0.0183 0.0822,-0.0361 0.12402,-0.0527 0.0152,-0.006 0.0176,0.0101 0.016,0.0315 0.0299,-0.004 0.0558,-0.008 0.0786,-0.0109 10e-4,0.002 10e-4,0.002 -0.002,-5.3e-4 -0.009,-0.008 -0.0177,-0.0193 -0.0258,-0.031 0.006,0.008 0.0234,0.0267 0.0274,0.0315 0.0129,-0.001 0.0248,-0.002 0.0357,-0.003 v -0.0769 h -0.0961 c 0.003,0.004 0.006,0.008 0.008,0.0119 -0.003,-0.004 -0.007,-0.008 -0.01,-0.0119 z m -0.26975,0.0501 c -0.0299,0.005 -0.057,0.009 -0.0827,0.0124 0.003,0.0125 0.005,0.0252 0.008,0.0377 0.0476,-0.004 0.0684,-0.0121 0.0744,-0.0501 z m 0.50281,0.68317 c -0.10693,0.0514 -0.3101,0.0877 -0.709,0.19223 -0.0391,0.0102 -0.0894,-0.0299 -0.14107,-0.0873 -0.0315,0.0103 -0.0635,0.0197 -0.0956,0.0279 -0.0678,0.0173 -0.11654,-0.0588 -0.16847,-0.11885 -0.01,0.003 -0.0198,0.004 -0.0295,0.006 -0.0747,0.10758 -0.10722,0.17173 -0.13849,0.19069 v 0.13694 h 1.28209 z" />
    </clipPath>
    <clipPath
       clipPathUnits="userSpaceOnUse"
       id="clipPath1894">
      <path
         id="path1895"
         style="fill:#ff0000;fill-opacity:1;stroke:none;stroke-width:0.2;stroke-linecap:round;stroke-linejoin:round;stroke-miterlimit:0;stroke-dasharray:none;stroke-opacity:1"
         d="m 104.82823,159.50913 -0.0703,5.3e-4 v 0.50592 c 0.0794,0.11253 0.15834,0.2252 0.23823,0.33744 -0.005,-0.0224 -0.01,-0.0444 -0.0165,-0.061 -0.0817,-0.20693 -0.0797,-0.4435 -0.13023,-0.65784 -0.0103,-0.0436 -0.0171,-0.0851 -0.0212,-0.12454 z m 1.91823,5.3e-4 c 0.001,0.002 0.002,0.003 0.003,0.005 0.0538,0.0957 0.12562,0.21136 0.0729,0.30799 -0.005,0.13741 -0.0423,0.3091 -0.13746,0.39016 -0.0788,0.0671 -0.17318,0.11222 -0.26458,0.16175 -0.004,0.008 -0.009,0.0136 -0.0119,0.016 -0.30871,0.22999 -0.52875,0.33195 -0.72812,0.21755 -0.19729,0.0987 -0.32601,0.13484 -0.42013,0.0997 0.0157,0.0199 0.0315,0.0397 0.0475,0.0594 5.3e-4,5.3e-4 9e-5,5.3e-4 5.3e-4,0.001 0.17646,0.008 0.2898,0.11019 0.40669,0.27389 0.041,-0.0156 0.0819,-0.0301 0.12403,-0.0424 0.0179,-0.005 0.0748,0.0523 0.14056,0.12919 h 1.14928 v -1.61954 z m -1.67587,0.94051 c -10e-4,2.4e-4 -0.002,7.9e-4 -0.004,10e-4 0.003,0.004 0.006,0.007 0.008,0.0108 -0.002,-0.004 -0.003,-0.008 -0.005,-0.0119 z" />
    </clipPath>
    <clipPath
       clipPathUnits="userSpaceOnUse"
       id="clipPath1852">
      <path
         id="path1852"
         style="fill:#ff0000;fill-opacity:1;stroke:none;stroke-width:0.2;stroke-linecap:round;stroke-linejoin:round;stroke-miterlimit:0;stroke-dasharray:none;stroke-opacity:1"
         d="m 108.83883,158.81046 v 0.95343 h 0.34623 c -0.0139,-0.008 -0.0245,-0.0197 -0.0325,-0.0372 -0.0253,0.003 -0.0508,0.005 -0.076,0.008 0,-0.0197 -0.003,-0.10907 -0.006,-0.19275 -0.0269,-0.0128 -0.014,-0.0558 -0.003,-0.0972 -0.002,-0.0751 -0.002,-0.14001 0.003,-0.14159 0.001,-5.3e-4 0.002,-5.3e-4 0.004,-10e-4 -6e-5,-0.009 8e-5,-0.0177 5.3e-4,-0.0264 1.3e-4,-0.003 2.6e-4,-0.005 5.3e-4,-0.007 -0.014,-0.1171 -0.0204,-0.18039 0.0269,-0.19534 -0.003,-0.0858 -0.005,-0.17204 -0.007,-0.25787 h -5.3e-4 c -3e-5,-0.002 2e-5,-0.003 0,-0.005 z m 1.20458,0 c 1e-5,0.002 1e-5,0.003 0,0.005 0,0.0761 0.001,0.15237 0.002,0.22841 0.0234,0.0257 0.0265,0.0756 0.0238,0.15296 0.006,0.004 0.0123,0.009 0.0176,0.015 0.12559,-0.006 0.13043,-0.002 0.0615,0.0336 0.001,0.0694 0.009,0.26194 0,0.26458 -0.005,0.001 -0.009,0.002 -0.0139,0.004 0.0131,0.0948 0.0142,0.12078 -0.0625,0.11111 0.002,0.0119 0.004,0.0246 0.008,0.0444 -0.0582,-0.007 -0.11708,-0.0125 -0.1757,-0.0176 -0.12422,0.0228 -0.2508,0.0342 -0.37775,0.0439 -0.0982,0.0321 -0.17091,0.0557 -0.22531,0.0682 h 1.37046 v -0.95343 z" />
    </clipPath>
    <clipPath
       clipPathUnits="userSpaceOnUse"
       id="clipPath1945">
      <path
         id="path1945"
         style="fill:#ff0000;fill-opacity:1;stroke:none;stroke-width:0.2;stroke-linecap:round;stroke-linejoin:round;stroke-miterlimit:0;stroke-dasharray:none;stroke-opacity:1"
         d="m 113.80081,152.61652 v 5.40484 c 0.0592,0.009 0.11839,0.0515 0.18965,0.11421 0.003,0.002 0.006,0.003 0.009,0.005 0.025,0.008 0.0499,0.0156 0.0749,0.0233 h 5.3e-4 c 0.0604,0.0185 0.11604,0.039 0.16743,0.061 0.10079,-0.0135 0.20541,-0.002 0.30747,-0.008 0.12587,0.075 0.27292,0.12244 0.37776,0.22479 0.15306,0.14944 0.21485,0.34547 0.2036,0.53795 0.009,0.0214 0.0164,0.0433 0.0212,0.0661 0.0233,0.11138 0.0262,0.22082 0.009,0.32246 h 2.05672 v -6.75153 z m 0.19895,5.5237 c -0.002,-5.3e-4 -0.004,-0.001 -0.006,-0.002 0.022,0.0195 0.0457,0.0412 0.0703,0.0641 0.007,0.002 0.0141,0.004 0.0212,0.006 -0.0183,-0.027 -0.0514,-0.0503 -0.0858,-0.0687 z m -0.006,-0.002 c -10e-4,-10e-4 -0.002,-0.002 -0.004,-0.003 -0.0891,-0.0452 -0.17657,-0.0558 -0.0186,-0.004 0.007,0.002 0.0148,0.004 0.0222,0.007 z m 0.64027,0.98134 c -0.0691,0.0329 -0.17985,0.0506 -0.3483,0.0486 -0.006,0.0106 -0.0123,0.0208 -0.0191,0.031 0.0427,0.0189 0.0923,0.0314 0.14728,0.0357 0.11251,-0.0344 0.16069,-0.0197 0.21859,-0.11265 5.3e-4,-7.9e-4 0.001,-0.002 0.002,-0.003 z" />
    </clipPath>
    <clipPath
       clipPathUnits="userSpaceOnUse"
       id="clipPath1883">
      <path
         id="path1884"
         style="fill:#ff0000;fill-opacity:1;stroke:none;stroke-width:0.2;stroke-linecap:round;stroke-linejoin:round;stroke-miterlimit:0;stroke-dasharray:none;stroke-opacity:1"
         d="m 100.99022,158.22858 v 0.26149 c 0.13239,-0.10076 0.29703,-0.16278 0.43925,-0.25167 0.029,0.0448 0.0597,0.0891 0.091,0.13281 0.007,-0.0456 0.0146,-0.0927 0.0233,-0.14263 z m 1.13585,5.95778 c 5e-5,5.3e-4 -5e-5,0.001 0,0.002 1.1e-4,-5.3e-4 5.3e-4,-10e-4 5.3e-4,-0.002 z m 0,0.002 c -0.0162,0.0793 -0.0335,0.1636 -0.047,0.23151 -0.002,0.009 -0.002,0.0198 -0.004,0.0295 h 0.0801 c -0.0111,-0.0867 -0.0204,-0.17383 -0.0289,-0.26097 z" />
    </clipPath>
    <clipPath
       clipPathUnits="userSpaceOnUse"
       id="clipPath1897">
      <path
         id="path1898"
         style="fill:#ff0000;fill-opacity:1;stroke:none;stroke-width:0.2;stroke-linecap:round;stroke-linejoin:round;stroke-miterlimit:0;stroke-dasharray:none;stroke-opacity:1"
         d="m 103.8164,157.66686 c -0.005,0.0139 -0.008,0.0272 -0.0134,0.0413 0.0296,0.0393 0.0574,0.0739 0.0889,0.11731 0.0551,0.076 0.0825,0.69514 0.0935,0.98082 0.0158,0.0441 0.0132,0.0997 0.006,0.15761 -6e-5,0.003 5e-5,0.005 0,0.008 0.01,0.002 0.019,0.004 0.0284,0.007 0.24569,0.0748 0.28625,0.42654 0.42943,0.63975 0.003,0.0191 0.006,0.0383 0.009,0.0574 0.0105,0.008 0.0211,0.0154 0.0315,0.0238 v -2.03243 z m 0.16847,7.70806 c -0.0126,0.0856 -0.024,0.15871 -0.0357,0.22996 h 0.54054 v -0.1943 c -0.15588,0.0256 -0.31496,0.045 -0.46251,0.0868 -0.0149,-0.0406 -0.0284,-0.0816 -0.0424,-0.12247 z" />
    </clipPath>
    <clipPath
       clipPathUnits="userSpaceOnUse"
       id="clipPath1934">
      <path
         id="path1934"
         style="fill:#ff0000;fill-opacity:1;stroke:none;stroke-width:0.2;stroke-linecap:round;stroke-linejoin:round;stroke-miterlimit:0;stroke-dasharray:none;stroke-opacity:1"
         d="m 102.78701,151.64966 v 5.89938 h 2.33887 c 1.7e-4,-0.0614 0.006,-0.12331 0.0109,-0.185 -0.003,-0.003 -0.006,-0.006 -0.009,-0.01 -0.089,-0.0964 -0.37467,-0.73298 -0.23978,-0.83871 0.24947,-0.19554 0.59773,-0.21109 0.89658,-0.31677 0.0856,0.10991 0.12377,0.1371 0.16847,0.25269 0.016,0.0415 0.0275,0.0843 0.0398,0.12713 1.4e-4,5.3e-4 2.6e-4,0.002 5.3e-4,0.003 0.0664,0.11251 0.13609,0.22389 0.1974,0.33951 0.0178,0.0313 0.22814,0.37047 0.21705,0.38137 -0.0122,0.012 -0.0248,0.0234 -0.0372,0.0351 0.31324,-0.12811 0.2486,-0.0865 0.0501,0.0134 0.005,0.0103 0.0105,0.0218 0.0139,0.0279 0.0216,0.039 0.0448,0.0775 0.0661,0.11679 0.0109,0.02 0.0187,0.0357 0.0284,0.0537 h 0.7183 v -5.89938 z m 2.19573,5.16196 c -2.4e-4,0.004 0.002,0.0198 0,0.0258 0,0.002 -0.003,-0.001 -0.004,-0.002 0.009,0.0133 0.018,0.0265 0.0269,0.0398 -0.006,-0.0221 -0.0122,-0.0436 -0.0217,-0.0636 -8e-4,-0.002 -0.001,-0.001 -0.001,0 z m 1.43609,0.54001 c -0.0275,0.0138 -0.0654,0.0319 -0.0972,0.0476 0.014,0.018 0.0242,0.0311 0.0393,0.0506 0.0282,-0.0142 0.0567,-0.0284 0.0847,-0.0429 -0.009,-0.0185 -0.0183,-0.0366 -0.0269,-0.0553 z" />
    </clipPath>
    <clipPath
       clipPathUnits="userSpaceOnUse"
       id="clipPath1985">
      <path
         id="path1986"
         style="fill:#ff0000;fill-opacity:1;stroke:none;stroke-width:0.2;stroke-linecap:round;stroke-linejoin:round;stroke-miterlimit:0;stroke-dasharray:none;stroke-opacity:1"
         d="m 107.02917,156.01059 -2.19541,3.4e-4 8e-5,2.91829 1.04606,3.7e-4 c -0.0209,-0.0584 -0.042,-0.11888 -0.064,-0.18317 -0.003,-0.10109 -0.0417,-0.21538 -0.0646,-0.32394 -0.0671,5.3e-4 -0.13467,-0.002 -0.20139,-0.0113 -0.0717,-0.009 -0.0816,-0.11951 -0.11992,-0.18091 -0.0897,-0.14356 -0.27917,-0.42245 -0.30007,-0.58947 -0.0115,-0.0918 -4.8e-4,-0.18423 0.006,-0.27686 -0.003,-0.003 -0.006,-0.006 -0.009,-0.01 -0.089,-0.0964 -0.37482,-0.73299 -0.23993,-0.83872 0.24947,-0.19554 0.59767,-0.211 0.89652,-0.31668 0.0856,0.10991 0.12363,0.13721 0.16833,0.2528 0.016,0.0415 0.028,0.084 0.0403,0.12687 10e-6,5.9e-4 -7e-5,0.002 3.1e-4,0.003 0.0664,0.11252 0.13592,0.22387 0.19723,0.33949 0.0178,0.0313 0.22853,0.37064 0.21743,0.38154 -0.0122,0.012 -0.0251,0.0232 -0.0376,0.0349 0.31324,-0.12812 0.24879,-0.0865 0.0503,0.0134 0.005,0.0103 0.0102,0.022 0.0136,0.0281 0.0216,0.039 0.0448,0.0775 0.0661,0.11677 0.009,0.0165 0.0151,0.029 0.0233,0.0441 0.0664,-0.0578 0.14555,-0.0904 0.22772,-0.0956 0.0938,-0.006 0.19102,0.0242 0.27844,0.0916 z m -0.6103,1.34107 c -0.0275,0.0138 -0.0654,0.0318 -0.0971,0.0474 0.0139,0.018 0.0245,0.0311 0.0396,0.0506 0.0282,-0.0142 0.0563,-0.0287 0.0843,-0.0432 -0.009,-0.0185 -0.0181,-0.0361 -0.0268,-0.0548 z m -1.43463,-0.54009 c -7.6e-4,-0.002 -0.001,-9.2e-4 -0.001,3e-5 l -4.7e-4,-2.3e-4 c -1.5e-4,0.004 0.002,0.0203 1.8e-4,0.0263 -7e-5,0.002 -0.003,-0.001 -0.004,-0.002 0.009,0.0133 0.0179,0.0267 0.0268,0.04 -0.006,-0.0221 -0.0119,-0.0438 -0.0214,-0.0637 z m 1.05768,1.88529 -2.3e-4,4.8e-4 c -0.0144,0.01 -0.0102,0.0241 0.0128,0.0529 0.006,-0.001 0.012,-0.002 0.0179,-0.004 -0.007,-0.0133 -0.0165,-0.0306 -0.0225,-0.042 -0.003,-0.002 -0.006,-0.005 -0.008,-0.007 z" />
    </clipPath>
    <clipPath
       clipPathUnits="userSpaceOnUse"
       id="clipPath1987">
      <path
         id="path1987"
         style="fill:#ff0000;fill-opacity:1;stroke:none;stroke-width:0.2;stroke-linecap:round;stroke-linejoin:round;stroke-miterlimit:0;stroke-dasharray:none;stroke-opacity:1"
         d="m 103.81744,163.33111 v 2.7094 h 3.27938 c -0.0493,-0.10796 -0.083,-0.22632 -0.1204,-0.32039 0.01,-0.11662 -0.0233,-0.24536 0.0294,-0.34985 0.19564,-0.38772 0.5572,-0.36736 0.91364,-0.37982 0.0289,-0.001 0.0571,-0.001 0.0842,-5.3e-4 0.7206,0.0155 0.83231,0.57633 0.29611,0.83302 0.0671,0.0735 0.0501,0.14133 0.0238,0.21756 h 1.13326 v -2.7094 z m 3.82922,2.61277 c -0.0193,0.003 -0.0384,0.006 -0.0574,0.0103 -0.0104,0.003 0.0225,0.0117 0.0315,0.006 0.008,-0.005 0.0173,-0.0106 0.0259,-0.016 z" />
    </clipPath>
    <clipPath
       clipPathUnits="userSpaceOnUse"
       id="clipPath1988">
      <path
         id="path1988"
         style="fill:#ff0000;fill-opacity:1;stroke:none;stroke-width:0.2;stroke-linecap:round;stroke-linejoin:round;stroke-miterlimit:0;stroke-dasharray:none;stroke-opacity:1"
         d="m 108.62903,165.34133 c 0.0342,0.16839 -0.0739,0.35943 -0.32918,0.48162 0.1049,0.11489 0.005,0.21543 -0.0165,0.35709 -0.0779,0.52523 -0.37398,-0.37353 -0.51831,0.13746 -0.0248,0.0879 -0.093,0.16291 -0.091,0.25321 -0.0762,-0.0663 -0.15748,-0.13039 -0.23978,-0.19068 -0.0216,-0.0142 -0.0436,-0.0278 -0.0656,-0.0413 v 0.23927 h 6.98717 v -1.23662 z m -0.98237,0.60255 c -0.0193,0.003 -0.0384,0.006 -0.0574,0.0103 -0.0104,0.003 0.0225,0.0117 0.0315,0.006 0.008,-0.005 0.0173,-0.0106 0.0259,-0.016 z" />
    </clipPath>
    <clipPath
       clipPathUnits="userSpaceOnUse"
       id="clipPath1979-7">
      <path
         id="path1980-6"
         style="fill:#ff0000;fill-opacity:1;stroke:none;stroke-width:0.2;stroke-linecap:round;stroke-linejoin:round;stroke-miterlimit:0;stroke-dasharray:none;stroke-opacity:1"
         d="m 109.03506,164.31858 -1.48931,5.3e-4 c 0.054,0.0978 0.10043,0.20301 0.14107,0.31161 0.12151,-0.13745 0.32806,-0.12376 0.64079,-0.009 0.15504,-1.6e-4 0.30217,0.0477 0.3669,0.19327 0.021,0.0472 -0.007,0.10301 -0.0103,0.1545 -0.0207,0.0343 -0.0202,0.0336 -0.031,0.0517 0.033,0.13186 0.012,0.2771 -0.0687,0.32711 -0.0429,0.0266 -0.0896,0.0445 -0.13797,0.0584 -0.009,0.0668 -0.0912,0.0894 -0.21911,0.0915 -0.14245,0.0604 -0.27117,0.0963 -0.37569,0.12041 0.0285,0.0468 0.0261,0.0924 0.0134,0.14004 0.0921,-0.0125 0.14744,-0.0107 0.19275,-0.046 0.004,-0.005 0.007,-0.011 0.0109,-0.016 0.0204,-0.0272 0.0731,-0.11405 0.0589,-0.0832 -0.0231,0.0499 -0.045,0.0799 -0.0698,0.0992 -0.0505,0.0785 -0.0767,0.19632 -0.16536,0.21446 -0.0291,0.006 -0.0553,0.0109 -0.0816,0.016 -3e-5,1.7e-4 2e-5,2.6e-4 0,5.3e-4 -0.0432,0.29108 -0.15346,0.14471 -0.26769,0.0434 -0.0946,0.01 -0.15904,0.007 -0.20774,-0.0119 -0.0153,0.0252 -0.0298,0.0597 -0.0429,0.10593 -0.0248,0.0879 -0.093,0.16292 -0.091,0.25322 -0.0762,-0.0663 -0.15748,-0.13039 -0.23978,-0.19069 -0.0591,-0.0389 -0.12165,-0.0725 -0.17725,-0.11627 -0.009,-0.007 -0.0168,-0.0142 -0.0248,-0.0217 v 0.62166 h 2.27531 z m -0.58859,1.08831 c 7.9e-4,-0.006 10e-4,-0.0118 10e-4,-0.0181 -0.0204,0.0118 -0.0408,0.0224 -0.061,0.0331 0.0203,-0.004 0.0401,-0.009 0.06,-0.015 z m 10e-4,-0.0181 c 0.007,-0.004 0.0132,-0.007 0.0202,-0.0114 0.0317,-0.0187 0.0153,-0.0627 0.002,-0.10542 -0.009,10e-4 -0.0237,0.005 -0.0419,0.0103 -0.004,0.004 -0.008,0.007 -0.0124,0.0114 0.0195,0.0373 0.031,0.0695 0.032,0.0951 z m 0.0222,-0.11679 c 0.0501,-0.005 0.002,0.0362 0.0739,-0.076 0.0423,-0.0655 0.052,-0.0793 0.0636,-0.0982 -0.0505,0.0559 -0.0984,0.10618 -0.14365,0.15038 0.002,0.008 0.004,0.0157 0.006,0.0238 z m 0.18346,-0.25063 c -0.0174,-0.0695 -0.0499,-0.13528 -0.0966,-0.18138 0.0331,0.0818 0.0583,0.16879 0.0739,0.2191 0.005,-0.008 0.0148,-0.0245 0.0227,-0.0377 z m -0.0227,0.0377 c -0.005,0.008 -0.0193,0.0326 -0.0228,0.0382 0.009,-0.01 0.0169,-0.0183 0.0259,-0.0284 -7.9e-4,-0.002 -0.002,-0.007 -0.003,-0.01 z m -1.59164,-0.4103 c -0.0518,0.011 -0.10275,0.0358 -0.15348,0.0599 0.082,0.0131 0.17734,0.0351 0.15348,-0.0599 z m -0.25993,0.10387 c -0.006,0.002 -0.0128,0.004 -0.0191,0.005 v 0.11989 c 0.018,-0.0112 0.0364,-0.0213 0.0553,-0.0305 -0.0176,-0.0307 -0.0335,-0.0614 -0.0362,-0.0941 z m 0.3452,0.96376 c -0.002,5.3e-4 -0.005,0.001 -0.007,0.002 -0.006,0.002 0.002,0.005 0.0124,0.007 -0.002,-0.003 -0.003,-0.005 -0.005,-0.008 z" />
    </clipPath>
    <clipPath
       clipPathUnits="userSpaceOnUse"
       id="clipPath1940-1">
      <path
         id="path1941-9"
         style="fill:#ff0000;fill-opacity:1;stroke:none;stroke-width:0.2;stroke-linecap:round;stroke-linejoin:round;stroke-miterlimit:0;stroke-dasharray:none;stroke-opacity:1"
         d="m 113.85926,162.12811 v 0.53175 c 0.12052,-0.0753 0.27221,-0.0959 0.4532,-0.0176 0.008,0.004 0.0257,0.0129 0.0403,0.0207 0.006,-0.002 0.012,-0.004 0.0181,-0.006 0.0194,-0.0378 0.042,-0.0737 0.0677,-0.10749 0.0369,-0.0668 0.0694,-0.13704 0.10283,-0.2067 -0.10674,-0.0739 -0.21645,-0.14403 -0.32607,-0.21445 z m 0.10697,1.3932 c -10e-4,2.6e-4 -0.002,0.001 -0.003,0.002 -0.0374,0.0315 -0.072,0.0561 -0.10438,0.0749 v 0.16899 c 0.0416,-0.0638 0.10489,-0.11782 0.17156,-0.17002 -0.0191,-0.0229 -0.037,-0.0464 -0.0501,-0.0724 -0.004,-0.002 -0.007,-0.003 -0.0104,-0.003 l 5.3e-4,-5.3e-4 c -0.002,-1.4e-4 -0.003,-2.6e-4 -0.004,0 z m 1.64796,0.50901 c -0.0101,0.0241 -0.0214,0.0484 -0.0351,0.0729 -0.0515,0.0916 -0.14353,0.14871 -0.23668,0.20464 -0.005,0.0216 -0.0105,0.043 -0.0176,0.0651 -0.0103,0.0323 -0.0276,0.0603 -0.0481,0.0863 0.005,0.0333 0.002,0.0667 -0.0103,0.0992 -0.0157,0.043 -0.0371,0.0827 -0.0625,0.11989 0.007,0.006 0.0132,0.0119 0.0196,0.0181 0.15306,0.14944 0.21486,0.34547 0.20361,0.53795 0.005,0.0125 0.01,0.0253 0.0139,0.0382 h 0.1726 z m -1.68362,1.13585 c -0.0257,0.0287 -0.0268,0.0607 -0.0119,0.0987 -5.3e-4,-0.0295 0.004,-0.0629 0.0119,-0.0987 z" />
    </clipPath>
    <clipPath
       clipPathUnits="userSpaceOnUse"
       id="clipPath1943-7">
      <path
         id="path1944-5"
         style="fill:#ff0000;fill-opacity:1;stroke:none;stroke-width:0.2;stroke-linecap:round;stroke-linejoin:round;stroke-miterlimit:0;stroke-dasharray:none;stroke-opacity:1"
         d="m 113.93057,165.16617 c -0.0257,0.0287 -0.0268,0.0607 -0.0119,0.0987 -5.3e-4,-0.0295 0.004,-0.0629 0.0119,-0.0987 z m 0.0506,0.20102 c 0.0182,0.0248 0.038,0.051 0.0605,0.0801 0.0114,0.003 0.0235,0.006 0.0357,0.008 -0.001,-0.0238 -0.001,-0.0487 -5.3e-4,-0.0744 -0.0275,-0.004 -0.0547,-0.007 -0.0837,-0.0113 -0.004,-5.3e-4 -0.008,-10e-4 -0.0119,-0.002 z m -0.11265,0.32918 v 0.19688 h 0.37723 c -0.0164,-0.0167 -0.0327,-0.0334 -0.0506,-0.0506 -0.0167,-0.0459 -0.0368,-0.091 -0.0553,-0.13642 -0.0101,0.002 -0.02,0.004 -0.0305,0.006 -0.0968,0.0167 -0.17526,0.009 -0.24081,-0.016 z" />
    </clipPath>
    <clipPath
       clipPathUnits="userSpaceOnUse"
       id="clipPath1982-0">
      <path
         id="path1983-5"
         style="fill:#ff0000;fill-opacity:1;stroke:none;stroke-width:0.2;stroke-linecap:round;stroke-linejoin:round;stroke-miterlimit:0;stroke-dasharray:none;stroke-opacity:1"
         d="m 108.62258,159.27245 -4.34006,-0.003 c 0.0539,0.11826 0.0994,0.24836 0.1667,0.34854 0.003,0.0191 0.006,0.0382 0.009,0.0573 0.0752,0.0544 0.14945,0.12861 0.21925,0.22592 0.20805,0.29 0.40533,0.58901 0.6308,0.86611 l 2.5e-4,7e-4 c 0.14373,0.007 0.24544,0.0782 0.34141,0.19202 0.0742,-0.0852 0.17124,-0.12921 0.27297,-0.12744 0.12655,0.002 0.25998,0.0753 0.36643,0.22262 0.0556,-0.002 0.11491,-0.006 0.17846,-0.009 0.0181,-9.9e-4 0.11669,0.19113 0.19574,0.31594 0.0105,0.0102 0.0204,0.0232 0.03,0.037 l 9.6e-4,4.5e-4 c 0.0625,-0.0204 0.125,-0.0415 0.18763,-0.0614 0.0301,0.0405 0.0579,0.083 0.0864,0.12461 -0.0152,-0.0206 -0.0329,-0.0355 -0.0553,-0.0306 -0.14098,0.031 -0.25434,0.0517 -0.34792,0.067 0.003,0.0303 0.006,0.0614 0.008,0.0923 0.0885,-0.009 0.16407,-0.0192 0.22818,-0.0286 0.041,-0.0183 0.0817,-0.0361 0.12357,-0.0527 0.0152,-0.006 0.0176,0.01 0.016,0.0315 0.0296,-0.004 0.0553,-0.009 0.0779,-0.0114 6e-5,2.6e-4 2e-5,5.9e-4 -0.002,-4.2e-4 -0.009,-0.008 -0.0173,-0.0193 -0.0255,-0.0308 0.006,0.008 0.0236,0.0264 0.0276,0.0312 1.2e-4,-1e-5 4.4e-4,2.9e-4 4.7e-4,2.2e-4 l 4.8e-4,2.3e-4 c 0.16144,-0.017 0.15519,0.0279 0.17304,0.27557 -0.0372,0.43797 0.0193,0.34306 -0.84722,0.57002 -0.0391,0.0102 -0.0896,-0.0296 -0.14125,-0.087 -0.0315,0.0103 -0.0636,0.0193 -0.0957,0.0275 -0.0678,0.0172 -0.11639,-0.058 -0.16834,-0.11803 -0.009,0.002 -0.0187,0.004 -0.0278,0.006 -0.16055,0.23173 -0.12274,0.25905 -0.31789,0.076 -0.0563,-0.0567 -0.14841,-0.14957 -0.14741,-0.15158 l 0.006,-0.009 c -0.0204,-0.0116 -0.0481,-0.0235 -0.064,-0.0364 -0.15612,0.0285 -0.21313,-0.13522 -0.37003,-0.41164 -0.001,-0.002 -0.004,-0.005 -0.006,-0.007 -0.0138,-0.007 -0.0427,-0.0215 -0.0613,-0.0312 0.0164,0.29954 0.0275,0.61746 0.0337,0.76111 2.8e-4,0.008 0.013,0.30975 0.0187,0.62788 0.0631,0.0346 0.12527,0.0757 0.18369,0.12183 0.005,-5.7e-4 0.009,-8.1e-4 0.0143,-0.001 -0.0545,-0.16676 -0.0804,-0.32415 -0.0191,-0.37219 0.24947,-0.19554 0.59793,-0.21147 0.89675,-0.31715 0.0856,0.10991 0.12363,0.13721 0.16833,0.2528 0.016,0.0415 0.0273,0.0843 0.0396,0.12712 2e-5,5.9e-4 -7e-5,0.002 3.1e-4,0.003 0.0664,0.11251 0.13638,0.2241 0.19769,0.33971 0.0178,0.0313 0.22806,0.37043 0.21696,0.38132 -0.0122,0.012 -0.0247,0.0234 -0.0371,0.0351 0.31324,-0.12812 0.24877,-0.0865 0.0503,0.0134 0.005,0.0103 0.0105,0.0215 0.0138,0.0276 0.0216,0.039 0.0448,0.0775 0.0661,0.11677 0.009,0.0164 0.0151,0.029 0.0232,0.0441 0.0664,-0.0578 0.14507,-0.0906 0.22725,-0.0958 0.21803,-0.0139 0.45693,0.16414 0.53785,0.56597 9.4e-4,-1.4e-4 0.002,-2.8e-4 0.003,-3.1e-4 l 7e-4,-2.5e-4 c 0.12981,0.001 0.20869,0.15804 0.38906,0.44401 0.0315,0.0598 0.0608,0.11309 0.0864,0.16229 0.0624,0.005 0.12787,0.0145 0.19722,0.03 0.12285,0.0275 0.24496,0.0677 0.36186,0.1194 z m -1.98463,2.07375 c -0.009,-0.003 -0.0177,-0.005 -0.0278,-0.003 l -4.8e-4,-2.3e-4 c -0.0202,0.004 -0.0406,0.008 -0.0607,0.0125 0.003,0.0251 0.005,0.0502 0.009,0.0883 0.043,-0.0141 0.0859,-0.0281 0.12891,-0.0422 -0.008,-0.0118 -0.0163,-0.0254 -0.025,-0.0392 -0.007,-0.007 -0.0157,-0.013 -0.0242,-0.0165 z m 0.0533,0.0554 c -0.002,2.8e-4 -0.003,-4.1e-4 -0.005,0.001 0.021,0.0305 0.04,0.0539 0.0535,0.0623 -0.0177,-0.0163 -0.0332,-0.0407 -0.0489,-0.0636 z m -0.14417,-0.0456 c -0.0367,0.008 -0.0732,0.0187 -0.10933,0.0297 0.005,0.0184 0.0101,0.0369 0.014,0.0563 0.003,0.0115 0.005,0.0232 0.008,0.0347 0.0312,-0.0102 0.0616,-0.0205 0.0927,-0.0307 l 2.3e-4,-4.8e-4 c -8e-4,-0.0223 -0.003,-0.0568 -0.006,-0.0896 z m 0.005,0.14622 c -0.0297,0.005 -0.0569,0.009 -0.0825,0.0126 0.003,0.0125 0.005,0.025 0.008,0.0375 0.0476,-0.004 0.0684,-0.0121 0.0744,-0.0501 z m 0.16251,2.10438 c -0.0275,0.0138 -0.0655,0.0318 -0.0971,0.0474 0.0139,0.018 0.024,0.031 0.0391,0.0504 0.0282,-0.0142 0.0571,-0.0289 0.085,-0.0434 -0.009,-0.0184 -0.0183,-0.0358 -0.027,-0.0544 z m -1.43464,-0.5401 c -7.6e-4,-0.002 -0.001,-8e-4 -0.001,3e-5 l -4.8e-4,-2.3e-4 c -1.5e-4,0.004 0.002,0.0199 4e-4,0.0259 -7e-5,0.002 -0.003,-9.4e-4 -0.004,-0.002 0.009,0.0133 0.0179,0.0267 0.0269,0.04 -0.006,-0.0221 -0.0119,-0.0438 -0.0214,-0.0637 z m -0.30802,0.71915 c -0.002,0.005 -0.005,0.0109 -0.007,0.0126 -0.054,0.038 -0.10034,0.0676 -0.14837,0.0981 -0.01,0.0311 -0.0306,0.0521 -0.0635,0.0609 0.0681,0.30521 0.13799,0.61012 0.21582,0.91303 0.0784,0.11975 0.16792,0.26792 0.0745,0.34173 -0.27593,0.21856 -0.67757,0.1913 -1.01628,0.2872 -0.0149,-0.0406 -0.0285,-0.0813 -0.0425,-0.12221 -0.0329,0.22362 -0.0682,0.42911 -0.0764,0.45748 -0.0337,0.11664 -0.0319,0.30377 -0.14993,0.33208 -0.006,0.002 -0.0122,0.002 -0.0184,0.003 l 2.78446,3.4e-4 c -0.004,-0.008 -0.009,-0.0168 -0.0133,-0.0251 -0.0369,-0.0603 -0.0792,-0.11736 -0.11089,-0.18066 -0.0544,-0.10879 -0.0547,-0.24406 -0.0443,-0.37436 -0.10006,-0.16807 -0.16588,-0.35744 -0.24479,-0.58801 -0.003,-0.10125 -0.0416,-0.21571 -0.0644,-0.32441 -0.0671,5.3e-4 -0.13395,-0.001 -0.20066,-0.0104 -0.0717,-0.009 -0.0816,-0.11951 -0.11993,-0.18091 -0.0276,-0.0441 -0.0651,-0.10168 -0.1038,-0.16419 -0.0364,-0.0138 -0.0739,-0.0301 -0.1136,-0.0523 -0.23648,-0.19125 -0.28854,-0.0772 -0.3414,-0.0852 -0.0161,0.0103 -0.0322,0.0218 -0.0471,0.0333 -0.016,-0.0635 -0.0351,-0.12688 -0.0552,-0.18986 -0.0242,-0.0574 -0.0553,-0.13879 -0.093,-0.24189 z m 1.36572,1.16614 -2.3e-4,4.8e-4 c -0.0144,0.01 -0.0102,0.0241 0.0128,0.0529 0.006,-0.001 0.0121,-0.002 0.0179,-0.004 -0.007,-0.0133 -0.0165,-0.0306 -0.0225,-0.042 -0.003,-0.002 -0.006,-0.005 -0.008,-0.007 z m 1.51738,0.99306 c -0.0498,0.0206 -0.0964,0.034 -0.14046,0.0424 -0.0551,0.0134 -0.11606,0.0213 -0.18327,0.0217 0.018,0.058 0.009,0.10075 -0.0142,0.13835 0.004,0.007 0.009,0.0149 0.0125,0.0219 l 0.34837,-2e-5 c -0.008,-0.0747 -0.0121,-0.15067 -0.0229,-0.22438 z m -0.96626,-0.10446 c -0.0185,-0.006 -0.0372,-0.0111 -0.0563,-0.0151 -0.0107,-0.002 0.0154,0.0202 0.0261,0.0186 0.01,-10e-4 0.0202,-0.002 0.0302,-0.004 z m 0.16753,0.32494 c -0.0272,-0.0128 -0.0547,-0.0254 -0.0823,-0.0375 -0.0224,0.004 -0.048,0.0169 -0.0781,0.0421 l 0.16344,-2.1e-4 c -0.001,-0.001 -0.002,-0.003 -0.003,-0.004 z m -4.92947,-1.97795 c -0.0163,0.0798 -0.0338,0.16463 -0.0474,0.233 -0.0464,0.23151 0.0643,0.56764 -0.11179,0.70867 0.003,0.0517 -0.009,0.0886 -0.0563,0.0894 -0.0278,5.2e-4 -0.0568,-10e-4 -0.0847,-0.002 -0.13176,0.0778 -0.24479,0.13679 -0.34469,0.18279 l -6e-5,0.7698 1.80081,-3.7e-4 c -0.16076,-0.0232 -0.32201,-0.0585 -0.48181,-0.0696 -0.0471,-0.17575 -0.10786,-0.34847 -0.14852,-0.52559 -0.27558,0.0885 -0.32372,-0.20121 -0.32751,-0.49957 -0.1167,-0.0249 -0.10289,-0.25454 -0.1296,-0.38249 -0.0347,-0.16601 -0.0519,-0.33489 -0.0685,-0.50393 z m 0.7726,1.45821 c -0.0127,0.003 -0.0257,0.006 -0.0384,0.009 -0.0115,0.003 0.0319,0.0218 0.0349,0.008 0.002,-0.006 0.002,-0.0119 0.004,-0.0172 z" />
    </clipPath>
    <clipPath
       clipPathUnits="userSpaceOnUse"
       id="clipPath1907-9">
      <path
         id="path1907-0"
         style="fill:#ff0000;fill-opacity:1;stroke:none;stroke-width:0.2;stroke-linecap:round;stroke-linejoin:round;stroke-miterlimit:0;stroke-dasharray:none;stroke-opacity:1"
         d="m 106.80485,156.23594 v 5.12734 c 0.0253,-0.008 0.0506,-0.0168 0.076,-0.0248 0.0301,0.0405 0.0578,0.0829 0.0863,0.12454 -0.0152,-0.0206 -0.0319,-0.0359 -0.0543,-0.031 -0.0381,0.008 -0.0738,0.0157 -0.108,0.0227 v 0.10645 c 0.0397,-0.0177 0.0794,-0.0351 0.11989,-0.0512 0.0152,-0.006 0.0176,0.0101 0.016,0.0315 0.0299,-0.004 0.0558,-0.008 0.0786,-0.0109 0.001,0.002 0.001,0.002 -0.002,-5.3e-4 -0.009,-0.008 -0.0177,-0.0193 -0.0258,-0.031 0.006,0.008 0.0234,0.0267 0.0274,0.0315 0.16257,-0.0174 0.15626,0.0277 0.17415,0.27596 -0.0287,0.33739 -0.006,0.35959 -0.38861,0.45527 v 1.40198 h 3.12488 v -7.42797 z" />
    </clipPath>
    <clipPath
       clipPathUnits="userSpaceOnUse"
       id="clipPath1850-9">
      <path
         id="path1850-1"
         style="fill:#ff0000;fill-opacity:1;stroke:none;stroke-width:0.2;stroke-linecap:round;stroke-linejoin:round;stroke-miterlimit:0;stroke-dasharray:none;stroke-opacity:1"
         d="m 107.39241,155.49955 v 6.44509 h 3.28249 v -6.44509 z m 2.17196,2.61173 c 0.23943,-2e-5 0.48004,0.23446 0.47904,0.70435 0,0.0761 0.001,0.15237 0.002,0.22841 0.0234,0.0257 0.0265,0.0756 0.0238,0.15296 0.006,0.004 0.0123,0.009 0.0176,0.015 0.12559,-0.006 0.13043,-0.002 0.0615,0.0336 0.001,0.0694 0.009,0.26195 0,0.26459 -0.005,0.001 -0.009,0.002 -0.0139,0.004 0.0131,0.0948 0.0142,0.12078 -0.0625,0.11111 0.002,0.0119 0.004,0.0246 0.008,0.0444 -0.0582,-0.007 -0.11708,-0.0125 -0.1757,-0.0176 -0.12422,0.0228 -0.2508,0.0342 -0.37775,0.0439 -0.25326,0.0827 -0.33733,0.11027 -0.37362,0.031 -0.0253,0.003 -0.0508,0.005 -0.076,0.008 0,-0.0197 -0.003,-0.10908 -0.006,-0.19276 -0.0269,-0.0128 -0.014,-0.0558 -0.003,-0.0971 -0.002,-0.0751 -0.002,-0.14001 0.003,-0.14159 10e-4,-5.3e-4 0.002,-5.3e-4 0.004,-0.001 -6e-5,-0.009 7e-5,-0.0177 5.3e-4,-0.0264 1.3e-4,-0.003 2.6e-4,-0.005 5.3e-4,-0.007 -0.014,-0.11709 -0.0204,-0.18038 0.0269,-0.19534 -0.003,-0.0858 -0.005,-0.17203 -0.007,-0.25786 h -5.3e-4 c -0.007,-0.46983 0.23082,-0.70434 0.47025,-0.70435 z" />
    </clipPath>
    <clipPath
       clipPathUnits="userSpaceOnUse"
       id="clipPath1851-2">
      <path
         id="path1851-6"
         style="fill:#ff0000;fill-opacity:1;stroke:none;stroke-width:0.2;stroke-linecap:round;stroke-linejoin:round;stroke-miterlimit:0;stroke-dasharray:none;stroke-opacity:1"
         d="m 110.15038,156.56822 v 2.6417 c 0.0575,-5.3e-4 0.0517,0.007 0,0.0346 v 0.0796 c 0.002,0.0734 0.004,0.15747 0,0.18036 v 2.91558 h 0.67334 v -5.85184 z" />
    </clipPath>
    <clipPath
       clipPathUnits="userSpaceOnUse"
       id="clipPath1909-6">
      <path
         id="path1910-6"
         style="fill:#ff0000;fill-opacity:1;stroke:none;stroke-width:0.2;stroke-linecap:round;stroke-linejoin:round;stroke-miterlimit:0;stroke-dasharray:none;stroke-opacity:1"
         d="m 106.455,161.45113 c 0.002,0.008 0.004,0.0162 0.006,0.0243 0.0248,-0.008 0.0496,-0.0162 0.0744,-0.0243 z m 0.27285,0 c 0.005,0.005 0.01,0.009 0.014,0.0119 -0.004,-0.004 -0.008,-0.008 -0.0114,-0.0119 z m 0.094,0 c -0.0998,0.0207 -0.18436,0.0362 -0.25683,0.0481 0.003,0.0303 0.006,0.0611 0.008,0.092 0.0885,-0.01 0.16379,-0.019 0.2279,-0.0284 0.041,-0.0183 0.0822,-0.0361 0.12402,-0.0527 0.0152,-0.006 0.0176,0.0101 0.016,0.0315 0.0299,-0.004 0.0558,-0.008 0.0786,-0.0109 10e-4,0.002 10e-4,0.002 -0.002,-5.3e-4 -0.009,-0.008 -0.0177,-0.0193 -0.0258,-0.031 0.006,0.008 0.0234,0.0267 0.0274,0.0315 0.0129,-0.001 0.0248,-0.002 0.0357,-0.003 v -0.0769 h -0.0961 c 0.003,0.004 0.006,0.008 0.008,0.0119 -0.003,-0.004 -0.007,-0.008 -0.01,-0.0119 z m -0.26975,0.0501 c -0.0299,0.005 -0.057,0.009 -0.0827,0.0124 0.003,0.0125 0.005,0.0252 0.008,0.0377 0.0476,-0.004 0.0684,-0.0121 0.0744,-0.0501 z m 0.50281,0.68317 c -0.10693,0.0514 -0.3101,0.0877 -0.709,0.19223 -0.0391,0.0102 -0.0894,-0.0299 -0.14107,-0.0873 -0.0315,0.0103 -0.0635,0.0197 -0.0956,0.0279 -0.0678,0.0173 -0.11654,-0.0588 -0.16847,-0.11885 -0.01,0.003 -0.0198,0.004 -0.0295,0.006 -0.0747,0.10758 -0.10722,0.17173 -0.13849,0.19069 v 0.13694 h 1.28209 z" />
    </clipPath>
    <clipPath
       clipPathUnits="userSpaceOnUse"
       id="clipPath1894-6">
      <path
         id="path1895-7"
         style="fill:#ff0000;fill-opacity:1;stroke:none;stroke-width:0.2;stroke-linecap:round;stroke-linejoin:round;stroke-miterlimit:0;stroke-dasharray:none;stroke-opacity:1"
         d="m 104.82823,159.50913 -0.0703,5.3e-4 v 0.50592 c 0.0794,0.11253 0.15834,0.2252 0.23823,0.33744 -0.005,-0.0224 -0.01,-0.0444 -0.0165,-0.061 -0.0817,-0.20693 -0.0797,-0.4435 -0.13023,-0.65784 -0.0103,-0.0436 -0.0171,-0.0851 -0.0212,-0.12454 z m 1.91823,5.3e-4 c 0.001,0.002 0.002,0.003 0.003,0.005 0.0538,0.0957 0.12562,0.21136 0.0729,0.30799 -0.005,0.13741 -0.0423,0.3091 -0.13746,0.39016 -0.0788,0.0671 -0.17318,0.11222 -0.26458,0.16175 -0.004,0.008 -0.009,0.0136 -0.0119,0.016 -0.30871,0.22999 -0.52875,0.33195 -0.72812,0.21755 -0.19729,0.0987 -0.32601,0.13484 -0.42013,0.0997 0.0157,0.0199 0.0315,0.0397 0.0475,0.0594 5.3e-4,5.3e-4 9e-5,5.3e-4 5.3e-4,0.001 0.17646,0.008 0.2898,0.11019 0.40669,0.27389 0.041,-0.0156 0.0819,-0.0301 0.12403,-0.0424 0.0179,-0.005 0.0748,0.0523 0.14056,0.12919 h 1.14928 v -1.61954 z m -1.67587,0.94051 c -10e-4,2.4e-4 -0.002,7.9e-4 -0.004,10e-4 0.003,0.004 0.006,0.007 0.008,0.0108 -0.002,-0.004 -0.003,-0.008 -0.005,-0.0119 z" />
    </clipPath>
    <clipPath
       clipPathUnits="userSpaceOnUse"
       id="clipPath1852-9">
      <path
         id="path1852-1"
         style="fill:#ff0000;fill-opacity:1;stroke:none;stroke-width:0.2;stroke-linecap:round;stroke-linejoin:round;stroke-miterlimit:0;stroke-dasharray:none;stroke-opacity:1"
         d="m 108.83883,158.81046 v 0.95343 h 0.34623 c -0.0139,-0.008 -0.0245,-0.0197 -0.0325,-0.0372 -0.0253,0.003 -0.0508,0.005 -0.076,0.008 0,-0.0197 -0.003,-0.10907 -0.006,-0.19275 -0.0269,-0.0128 -0.014,-0.0558 -0.003,-0.0972 -0.002,-0.0751 -0.002,-0.14001 0.003,-0.14159 0.001,-5.3e-4 0.002,-5.3e-4 0.004,-10e-4 -6e-5,-0.009 8e-5,-0.0177 5.3e-4,-0.0264 1.3e-4,-0.003 2.6e-4,-0.005 5.3e-4,-0.007 -0.014,-0.1171 -0.0204,-0.18039 0.0269,-0.19534 -0.003,-0.0858 -0.005,-0.17204 -0.007,-0.25787 h -5.3e-4 c -3e-5,-0.002 2e-5,-0.003 0,-0.005 z m 1.20458,0 c 1e-5,0.002 1e-5,0.003 0,0.005 0,0.0761 0.001,0.15237 0.002,0.22841 0.0234,0.0257 0.0265,0.0756 0.0238,0.15296 0.006,0.004 0.0123,0.009 0.0176,0.015 0.12559,-0.006 0.13043,-0.002 0.0615,0.0336 0.001,0.0694 0.009,0.26194 0,0.26458 -0.005,0.001 -0.009,0.002 -0.0139,0.004 0.0131,0.0948 0.0142,0.12078 -0.0625,0.11111 0.002,0.0119 0.004,0.0246 0.008,0.0444 -0.0582,-0.007 -0.11708,-0.0125 -0.1757,-0.0176 -0.12422,0.0228 -0.2508,0.0342 -0.37775,0.0439 -0.0982,0.0321 -0.17091,0.0557 -0.22531,0.0682 h 1.37046 v -0.95343 z" />
    </clipPath>
    <clipPath
       clipPathUnits="userSpaceOnUse"
       id="clipPath1945-1">
      <path
         id="path1945-2"
         style="fill:#ff0000;fill-opacity:1;stroke:none;stroke-width:0.2;stroke-linecap:round;stroke-linejoin:round;stroke-miterlimit:0;stroke-dasharray:none;stroke-opacity:1"
         d="m 113.80081,152.61652 v 5.40484 c 0.0592,0.009 0.11839,0.0515 0.18965,0.11421 0.003,0.002 0.006,0.003 0.009,0.005 0.025,0.008 0.0499,0.0156 0.0749,0.0233 h 5.3e-4 c 0.0604,0.0185 0.11604,0.039 0.16743,0.061 0.10079,-0.0135 0.20541,-0.002 0.30747,-0.008 0.12587,0.075 0.27292,0.12244 0.37776,0.22479 0.15306,0.14944 0.21485,0.34547 0.2036,0.53795 0.009,0.0214 0.0164,0.0433 0.0212,0.0661 0.0233,0.11138 0.0262,0.22082 0.009,0.32246 h 2.05672 v -6.75153 z m 0.19895,5.5237 c -0.002,-5.3e-4 -0.004,-0.001 -0.006,-0.002 0.022,0.0195 0.0457,0.0412 0.0703,0.0641 0.007,0.002 0.0141,0.004 0.0212,0.006 -0.0183,-0.027 -0.0514,-0.0503 -0.0858,-0.0687 z m -0.006,-0.002 c -10e-4,-10e-4 -0.002,-0.002 -0.004,-0.003 -0.0891,-0.0452 -0.17657,-0.0558 -0.0186,-0.004 0.007,0.002 0.0148,0.004 0.0222,0.007 z m 0.64027,0.98134 c -0.0691,0.0329 -0.17985,0.0506 -0.3483,0.0486 -0.006,0.0106 -0.0123,0.0208 -0.0191,0.031 0.0427,0.0189 0.0923,0.0314 0.14728,0.0357 0.11251,-0.0344 0.16069,-0.0197 0.21859,-0.11265 5.3e-4,-7.9e-4 0.001,-0.002 0.002,-0.003 z" />
    </clipPath>
    <clipPath
       clipPathUnits="userSpaceOnUse"
       id="clipPath1883-8">
      <path
         id="path1884-6"
         style="fill:#ff0000;fill-opacity:1;stroke:none;stroke-width:0.2;stroke-linecap:round;stroke-linejoin:round;stroke-miterlimit:0;stroke-dasharray:none;stroke-opacity:1"
         d="m 100.99022,158.22858 v 0.26149 c 0.13239,-0.10076 0.29703,-0.16278 0.43925,-0.25167 0.029,0.0448 0.0597,0.0891 0.091,0.13281 0.007,-0.0456 0.0146,-0.0927 0.0233,-0.14263 z m 1.13585,5.95778 c 5e-5,5.3e-4 -5e-5,0.001 0,0.002 1.1e-4,-5.3e-4 5.3e-4,-10e-4 5.3e-4,-0.002 z m 0,0.002 c -0.0162,0.0793 -0.0335,0.1636 -0.047,0.23151 -0.002,0.009 -0.002,0.0198 -0.004,0.0295 h 0.0801 c -0.0111,-0.0867 -0.0204,-0.17383 -0.0289,-0.26097 z" />
    </clipPath>
    <clipPath
       clipPathUnits="userSpaceOnUse"
       id="clipPath1897-7">
      <path
         id="path1898-6"
         style="fill:#ff0000;fill-opacity:1;stroke:none;stroke-width:0.2;stroke-linecap:round;stroke-linejoin:round;stroke-miterlimit:0;stroke-dasharray:none;stroke-opacity:1"
         d="m 103.8164,157.66686 c -0.005,0.0139 -0.008,0.0272 -0.0134,0.0413 0.0296,0.0393 0.0574,0.0739 0.0889,0.11731 0.0551,0.076 0.0825,0.69514 0.0935,0.98082 0.0158,0.0441 0.0132,0.0997 0.006,0.15761 -6e-5,0.003 5e-5,0.005 0,0.008 0.01,0.002 0.019,0.004 0.0284,0.007 0.24569,0.0748 0.28625,0.42654 0.42943,0.63975 0.003,0.0191 0.006,0.0383 0.009,0.0574 0.0105,0.008 0.0211,0.0154 0.0315,0.0238 v -2.03243 z m 0.16847,7.70806 c -0.0126,0.0856 -0.024,0.15871 -0.0357,0.22996 h 0.54054 v -0.1943 c -0.15588,0.0256 -0.31496,0.045 -0.46251,0.0868 -0.0149,-0.0406 -0.0284,-0.0816 -0.0424,-0.12247 z" />
    </clipPath>
    <clipPath
       clipPathUnits="userSpaceOnUse"
       id="clipPath1934-5">
      <path
         id="path1934-5"
         style="fill:#ff0000;fill-opacity:1;stroke:none;stroke-width:0.2;stroke-linecap:round;stroke-linejoin:round;stroke-miterlimit:0;stroke-dasharray:none;stroke-opacity:1"
         d="m 102.78701,151.64966 v 5.89938 h 2.33887 c 1.7e-4,-0.0614 0.006,-0.12331 0.0109,-0.185 -0.003,-0.003 -0.006,-0.006 -0.009,-0.01 -0.089,-0.0964 -0.37467,-0.73298 -0.23978,-0.83871 0.24947,-0.19554 0.59773,-0.21109 0.89658,-0.31677 0.0856,0.10991 0.12377,0.1371 0.16847,0.25269 0.016,0.0415 0.0275,0.0843 0.0398,0.12713 1.4e-4,5.3e-4 2.6e-4,0.002 5.3e-4,0.003 0.0664,0.11251 0.13609,0.22389 0.1974,0.33951 0.0178,0.0313 0.22814,0.37047 0.21705,0.38137 -0.0122,0.012 -0.0248,0.0234 -0.0372,0.0351 0.31324,-0.12811 0.2486,-0.0865 0.0501,0.0134 0.005,0.0103 0.0105,0.0218 0.0139,0.0279 0.0216,0.039 0.0448,0.0775 0.0661,0.11679 0.0109,0.02 0.0187,0.0357 0.0284,0.0537 h 0.7183 v -5.89938 z m 2.19573,5.16196 c -2.4e-4,0.004 0.002,0.0198 0,0.0258 0,0.002 -0.003,-0.001 -0.004,-0.002 0.009,0.0133 0.018,0.0265 0.0269,0.0398 -0.006,-0.0221 -0.0122,-0.0436 -0.0217,-0.0636 -8e-4,-0.002 -0.001,-0.001 -0.001,0 z m 1.43609,0.54001 c -0.0275,0.0138 -0.0654,0.0319 -0.0972,0.0476 0.014,0.018 0.0242,0.0311 0.0393,0.0506 0.0282,-0.0142 0.0567,-0.0284 0.0847,-0.0429 -0.009,-0.0185 -0.0183,-0.0366 -0.0269,-0.0553 z" />
    </clipPath>
    <clipPath
       clipPathUnits="userSpaceOnUse"
       id="clipPath1985-5">
      <path
         id="path1986-8"
         style="fill:#ff0000;fill-opacity:1;stroke:none;stroke-width:0.2;stroke-linecap:round;stroke-linejoin:round;stroke-miterlimit:0;stroke-dasharray:none;stroke-opacity:1"
         d="m 107.02917,156.01059 -2.19541,3.4e-4 8e-5,2.91829 1.04606,3.7e-4 c -0.0209,-0.0584 -0.042,-0.11888 -0.064,-0.18317 -0.003,-0.10109 -0.0417,-0.21538 -0.0646,-0.32394 -0.0671,5.3e-4 -0.13467,-0.002 -0.20139,-0.0113 -0.0717,-0.009 -0.0816,-0.11951 -0.11992,-0.18091 -0.0897,-0.14356 -0.27917,-0.42245 -0.30007,-0.58947 -0.0115,-0.0918 -4.8e-4,-0.18423 0.006,-0.27686 -0.003,-0.003 -0.006,-0.006 -0.009,-0.01 -0.089,-0.0964 -0.37482,-0.73299 -0.23993,-0.83872 0.24947,-0.19554 0.59767,-0.211 0.89652,-0.31668 0.0856,0.10991 0.12363,0.13721 0.16833,0.2528 0.016,0.0415 0.028,0.084 0.0403,0.12687 10e-6,5.9e-4 -7e-5,0.002 3.1e-4,0.003 0.0664,0.11252 0.13592,0.22387 0.19723,0.33949 0.0178,0.0313 0.22853,0.37064 0.21743,0.38154 -0.0122,0.012 -0.0251,0.0232 -0.0376,0.0349 0.31324,-0.12812 0.24879,-0.0865 0.0503,0.0134 0.005,0.0103 0.0102,0.022 0.0136,0.0281 0.0216,0.039 0.0448,0.0775 0.0661,0.11677 0.009,0.0165 0.0151,0.029 0.0233,0.0441 0.0664,-0.0578 0.14555,-0.0904 0.22772,-0.0956 0.0938,-0.006 0.19102,0.0242 0.27844,0.0916 z m -0.6103,1.34107 c -0.0275,0.0138 -0.0654,0.0318 -0.0971,0.0474 0.0139,0.018 0.0245,0.0311 0.0396,0.0506 0.0282,-0.0142 0.0563,-0.0287 0.0843,-0.0432 -0.009,-0.0185 -0.0181,-0.0361 -0.0268,-0.0548 z m -1.43463,-0.54009 c -7.6e-4,-0.002 -0.001,-9.2e-4 -0.001,3e-5 l -4.7e-4,-2.3e-4 c -1.5e-4,0.004 0.002,0.0203 1.8e-4,0.0263 -7e-5,0.002 -0.003,-0.001 -0.004,-0.002 0.009,0.0133 0.0179,0.0267 0.0268,0.04 -0.006,-0.0221 -0.0119,-0.0438 -0.0214,-0.0637 z m 1.05768,1.88529 -2.3e-4,4.8e-4 c -0.0144,0.01 -0.0102,0.0241 0.0128,0.0529 0.006,-0.001 0.012,-0.002 0.0179,-0.004 -0.007,-0.0133 -0.0165,-0.0306 -0.0225,-0.042 -0.003,-0.002 -0.006,-0.005 -0.008,-0.007 z" />
    </clipPath>
    <clipPath
       clipPathUnits="userSpaceOnUse"
       id="clipPath1987-8">
      <path
         id="path1987-0"
         style="fill:#ff0000;fill-opacity:1;stroke:none;stroke-width:0.2;stroke-linecap:round;stroke-linejoin:round;stroke-miterlimit:0;stroke-dasharray:none;stroke-opacity:1"
         d="m 103.81744,163.33111 v 2.7094 h 3.27938 c -0.0493,-0.10796 -0.083,-0.22632 -0.1204,-0.32039 0.01,-0.11662 -0.0233,-0.24536 0.0294,-0.34985 0.19564,-0.38772 0.5572,-0.36736 0.91364,-0.37982 0.0289,-0.001 0.0571,-0.001 0.0842,-5.3e-4 0.7206,0.0155 0.83231,0.57633 0.29611,0.83302 0.0671,0.0735 0.0501,0.14133 0.0238,0.21756 h 1.13326 v -2.7094 z m 3.82922,2.61277 c -0.0193,0.003 -0.0384,0.006 -0.0574,0.0103 -0.0104,0.003 0.0225,0.0117 0.0315,0.006 0.008,-0.005 0.0173,-0.0106 0.0259,-0.016 z" />
    </clipPath>
    <clipPath
       clipPathUnits="userSpaceOnUse"
       id="clipPath1988-8">
      <path
         id="path1988-3"
         style="fill:#ff0000;fill-opacity:1;stroke:none;stroke-width:0.2;stroke-linecap:round;stroke-linejoin:round;stroke-miterlimit:0;stroke-dasharray:none;stroke-opacity:1"
         d="m 108.62903,165.34133 c 0.0342,0.16839 -0.0739,0.35943 -0.32918,0.48162 0.1049,0.11489 0.005,0.21543 -0.0165,0.35709 -0.0779,0.52523 -0.37398,-0.37353 -0.51831,0.13746 -0.0248,0.0879 -0.093,0.16291 -0.091,0.25321 -0.0762,-0.0663 -0.15748,-0.13039 -0.23978,-0.19068 -0.0216,-0.0142 -0.0436,-0.0278 -0.0656,-0.0413 v 0.23927 h 6.98717 v -1.23662 z m -0.98237,0.60255 c -0.0193,0.003 -0.0384,0.006 -0.0574,0.0103 -0.0104,0.003 0.0225,0.0117 0.0315,0.006 0.008,-0.005 0.0173,-0.0106 0.0259,-0.016 z" />
    </clipPath>
    <radialGradient
       inkscape:collect="always"
       xlink:href="#linearGradient2056"
       id="radialGradient2050-8-9-8"
       cx="140.10265"
       cy="151.76079"
       fx="140.10265"
       fy="151.76079"
       r="4.7255383"
       gradientTransform="matrix(4.6121912,0,0,4.9111502,-561.98574,-576.08148)"
       gradientUnits="userSpaceOnUse" />
    <linearGradient
       id="linearGradient2056"
       inkscape:collect="always">
      <stop
         style="stop-color:#e617bd;stop-opacity:1;"
         offset="0.70104438"
         id="stop2055" />
      <stop
         style="stop-color:#201310;stop-opacity:0.99833053;"
         offset="0.99738902"
         id="stop2056" />
    </linearGradient>
    <radialGradient
       inkscape:collect="always"
       xlink:href="#linearGradient2049"
       id="radialGradient2050"
       cx="140.10265"
       cy="151.76079"
       fx="140.10265"
       fy="151.76079"
       r="4.7255383"
       gradientTransform="matrix(4.5691675,0,0,4.8653377,-581.81878,-575.50049)"
       gradientUnits="userSpaceOnUse" />
    <linearGradient
       id="linearGradient2049"
       inkscape:collect="always">
      <stop
         style="stop-color:#ee3605;stop-opacity:1;"
         offset="0.70104438"
         id="stop2049" />
      <stop
         style="stop-color:#201310;stop-opacity:0.99833053;"
         offset="0.99738902"
         id="stop2050" />
    </linearGradient>
    <radialGradient
       inkscape:collect="always"
       xlink:href="#linearGradient2054"
       id="radialGradient2050-8-9"
       cx="140.10265"
       cy="151.76079"
       fx="140.10265"
       fy="151.76079"
       r="4.7255383"
       gradientTransform="matrix(4.8838292,0,0,5.2003957,-616.53392,-651.7696)"
       gradientUnits="userSpaceOnUse" />
    <linearGradient
       id="linearGradient2054"
       inkscape:collect="always">
      <stop
         style="stop-color:#e69a17;stop-opacity:1;"
         offset="0.70104438"
         id="stop2053" />
      <stop
         style="stop-color:#201310;stop-opacity:0.99833053;"
         offset="0.99738902"
         id="stop2054" />
    </linearGradient>
    <radialGradient
       inkscape:collect="always"
       xlink:href="#linearGradient2052"
       id="radialGradient2050-8"
       cx="140.10265"
       cy="151.76079"
       fx="140.10265"
       fy="151.76079"
       r="4.7255383"
       gradientTransform="matrix(5.2232914,0,0,5.5618614,-641.60577,-701.06965)"
       gradientUnits="userSpaceOnUse" />
    <linearGradient
       id="linearGradient2052"
       inkscape:collect="always">
      <stop
         style="stop-color:#05ee0e;stop-opacity:1;"
         offset="0.70104438"
         id="stop2051" />
      <stop
         style="stop-color:#201310;stop-opacity:0.99833053;"
         offset="0.99738902"
         id="stop2052" />
    </linearGradient>
  </defs>
  <g
     inkscape:label="Layer 1"
     inkscape:groupmode="layer"
     id="layer1">
    <ellipse
       style="fill:url(#radialGradient2050-8);fill-opacity:1;stroke:#ffffff;stroke-width:1.06671;stroke-linecap:round;stroke-linejoin:round;stroke-miterlimit:0;stroke-dasharray:none;stroke-opacity:1"
       id="path2049-7"
       cx="90.191261"
       cy="143.00278"
       rx="24.682863"
       ry="26.282785"
       inkscape:export-filename="Icon Background.png"
       inkscape:export-xdpi="96"
       inkscape:export-ydpi="96" />
    <circle
       style="fill:none;fill-opacity:1;stroke:none;stroke-width:0.37882;stroke-linecap:round;stroke-linejoin:round;stroke-miterlimit:0;stroke-dasharray:none;stroke-opacity:1"
       id="path2071"
       cx="79.610474"
       cy="89.395622"
       r="35.243938"
       inkscape:export-filename="..\..\..\..\NutriCrush\Assets\HostWithBalls.png"
       inkscape:export-xdpi="96"
       inkscape:export-ydpi="96" />
    <path
       style="fill:#ffffff;fill-opacity:1;fill-rule:nonzero;stroke:none;stroke-width:0.264583"
       id="path2059"
       d="m 74.40649,57.892557 c 1.1354,0.41312 2.20358,0.98335 3.26096,1.56209 0.98208,0.53752 0.61596,0.30963 1.39415,0.85501 0.009,0.008 0.12218,-0.11716 0.11333,-0.12517 v 0 c -0.16863,-0.16044 -0.32629,-0.33324 -0.50587,-0.48131 -1.20751,-0.99562 -2.64848,-1.68095 -4.13721,-2.13778 -0.0231,-0.009 -0.1485,0.3183 -0.12536,0.32716 z"
       inkscape:export-filename="Logo.png"
       inkscape:export-xdpi="96"
       inkscape:export-ydpi="96" />
    <text
       xml:space="preserve"
       style="font-style:normal;font-variant:normal;font-weight:normal;font-stretch:normal;font-size:24.6944px;font-family:'Life is goofy';-inkscape-font-specification:'Life is goofy, Normal';font-variant-ligatures:normal;font-variant-caps:normal;font-variant-numeric:normal;font-variant-east-asian:normal;fill:#ffffff;fill-opacity:1;stroke:#2e233e;stroke-width:0.791;stroke-linecap:round;stroke-linejoin:round;stroke-miterlimit:0;stroke-dasharray:none;stroke-opacity:1"
       id="text35"
       transform="matrix(-0.90125695,-0.90718199,0.95268121,-0.85547847,69.48043,254.26138)"><textPath
         xlink:href="#path35"
         id="textPath35"><tspan
           id="tspan35"
           style="font-style:normal;font-variant:normal;font-weight:normal;font-stretch:normal;font-size:24.6944px;font-family:'Life is goofy';-inkscape-font-specification:'Life is goofy, Normal';font-variant-ligatures:normal;font-variant-caps:normal;font-variant-numeric:normal;font-variant-east-asian:normal;fill:#ffffff;stroke:#2e233e;stroke-width:0.791;stroke-dasharray:none;stroke-opacity:1">Mayhem</tspan></textPath></text>
    <circle
       style="fill:none;fill-opacity:1;stroke:none;stroke-width:0.232727;stroke-linecap:round;stroke-linejoin:round;stroke-miterlimit:0;stroke-opacity:0"
       id="path35"
       cx="79.970139"
       cy="88.130302"
       r="35" />
    <path
       d="m 64.79966,46.627227 q -0.49463,0.64149 -1.38391,0.88741 -0.83989,0.24599 -1.77817,0.14613 -0.88894,-0.0504 -1.72821,-0.34771 -0.83921,-0.34668 -1.28309,-0.89047 -1.08348,-2.66825 -2.31515,-5.33666 -1.18226,-2.66836 -3.05689,-4.5473 -0.64324,1.03642 -0.64471,2.32054 0.0479,1.28417 0.24393,2.61789 0.24541,1.33379 0.49088,2.61818 0.24547,1.28439 0.0961,2.32139 -0.69196,0.44371 -1.72958,0.83763 -1.03762,0.39391 -2.07496,0.54089 -0.98795,0.14703 -1.82728,-0.1009 -0.78993,-0.24785 -1.0853,-1.0878 -0.0985,-0.29645 -0.0487,-0.59272 0.0497,-0.29628 0.19823,-0.59244 0.14851,-0.29616 0.29702,-0.59233 0.1979,-0.29611 0.29707,-0.64171 0.34765,-1.67883 0.30104,-4.09894 0.003,-2.42006 -0.0935,-4.64267 -0.14539,-2.420214 -0.58745,-4.544432 -0.442,-2.173605 -0.53885,-3.852936 1.53225,-1.035404 2.86575,-1.033874 1.38289,0.002 2.56737,0.743784 1.23392,0.692857 2.26967,1.928761 1.03581,1.186521 1.92322,2.570425 0.9368,1.383951 1.72543,2.767745 0.78869,1.334397 1.479,2.322977 0.24757,-0.543 0.19914,-1.38267 9.7e-4,-0.83961 -0.19551,-1.778214 -0.14703,-0.987944 -0.3434,-2.025328 -0.1963,-1.086774 -0.29394,-2.074658 -0.0483,-0.987834 0.10084,-1.777881 0.19851,-0.839374 0.74242,-1.382031 0.69217,-0.641257 1.53179,-0.640287 0.889,0.001 1.67871,0.446427 0.83916,0.39607 1.43097,1.137584 0.59187,0.692117 0.73913,1.482501 0.19637,1.037394 0.14562,2.222658 -0.001,1.185324 -0.15101,2.469255 -0.10027,1.283994 -0.24994,2.617324 -0.10028,1.284 -0.10175,2.56811 -10e-4,1.13594 0.0962,2.272 0.14691,1.08672 0.2445,2.124 0.0976,1.03729 0.0964,2.07445 -10e-4,0.98777 -0.24916,1.92588 z M 79.38439,33.60531 q 0.54248,0.692067 0.39318,1.679677 -0.0999,0.93826 -0.0517,2.02488 0.0481,1.13601 0.1949,2.32151 0.14681,1.18549 0.1455,2.32144 -0.001,1.08655 -0.29878,2.12338 -0.24807,0.9875 -0.98982,1.77687 -0.74179,0.83875 -1.97708,1.33123 -1.23523,0.44308 -2.61823,0.54027 -1.38306,0.14658 -2.66683,-0.15123 -1.23445,-0.24836 -2.02387,-0.94072 -1.1842,-0.98914 -1.77522,-2.42209 -0.54164,-1.4329 -0.58915,-3.0628 -0.0969,-1.67933 0.20147,-3.4076 0.34776,-1.7776 0.84353,-3.40686 0.39545,-0.295887 1.03762,-0.393927 0.69155,-0.098 1.3335,0.002 0.69132,0.0996 1.23426,0.396537 0.543,0.24756 0.6906,0.74162 0.19687,0.5929 -0.001,1.28411 -0.14891,0.64189 -0.44604,1.33299 -0.29707,0.64172 -0.59414,1.28343 -0.24769,0.64177 -0.24825,1.13566 -0.0504,0.88895 0.14595,1.92634 0.24581,0.98805 1.13436,1.38419 0.59232,0.29702 1.18505,0.24831 0.64216,-0.0981 1.13634,-0.34442 0.54362,-0.29571 0.88979,-0.69043 0.39556,-0.39465 0.54407,-0.69081 0.3468,-0.93799 0.19961,-1.77777 -0.14721,-0.83978 -0.44258,-1.67974 -0.29537,-0.83995 -0.59074,-1.6799 -0.24591,-0.88929 -0.0966,-1.92628 0.59346,-0.69076 1.7793,-1.133897 1.18585,-0.443137 2.32145,-0.1455 z m 10.42493,-3.346449 q 0.44416,0.296837 0.0975,1.136044 -0.29725,0.789884 -0.8424,2.419075 0.79023,9.1e-4 1.13594,10e-4 0.34572,4e-4 0.741,-0.14732 0.39528,-0.147707 0.74107,-0.196697 0.39522,-0.0983 0.9876,0.149297 0.19682,0.642277 0.0477,1.481717 -0.0997,0.79011 -0.29775,1.23438 -0.14868,0.44433 -1.48258,0.78852 -1.33389,0.3442 -2.42033,0.24417 -0.19818,0.54305 -0.3967,1.38243 -0.14907,0.79005 -0.19937,1.58022 -8.5e-4,0.74084 0.14652,1.43244 0.19681,0.64229 0.63978,1.9763 0.64127,0.69218 1.87672,0.0516 1.23546,-0.64064 1.53146,-0.34397 0.29605,0.24729 0.34436,1.18573 0.0977,0.93851 -0.24928,2.02466 -0.84012,0.44353 -1.92701,0.73862 -1.08684,0.2457 -2.17333,0.19506 -1.03717,-10e-4 -1.97516,-0.34799 -0.88861,-0.34674 -1.38159,-1.13754 -0.49304,-0.7414 -0.68951,-1.68001 -0.14709,-0.93856 -0.19529,-1.97578 0.001,-1.03717 0.002,-2.12373 0.0507,-1.13588 0.29973,-2.96298 -0.83944,-0.14914 -1.53082,-0.19932 -0.69133,-0.0996 -0.98715,-0.54441 -0.24639,-0.49417 -0.34436,-1.18573 -0.0979,-0.74095 0.2982,-1.629487 0.34623,-0.444107 1.03779,-0.542087 0.69156,-0.098 2.51861,0.20045 0.1489,-0.641877 0.24785,-0.789937 0.099,-0.197437 0.0998,-0.839494 0.0501,-0.641987 -0.0483,-0.987824 -0.049,-0.34578 0.0503,-0.790167 0.39551,-0.345257 0.93884,-0.394027 0.5434,-0.0982 1.13595,0.001 0.59255,0.0995 1.1356,0.297637 0.5925,0.14885 1.08622,0.29758 z m 11.45001,7.174526 q -0.59216,-0.44518 -1.18483,-0.44587 -0.54327,-6.2e-4 -1.0375,0.29514 -0.49418,0.24639 -0.88985,0.73982 -0.39562,0.44405 -0.64308,0.88826 0.0973,1.28423 0.54061,2.3219 0.44331,1.03768 0.88667,2.02597 0.49281,0.93895 0.8374,1.92713 0.39397,0.98822 0.34328,2.12411 -1.28417,0.0479 -2.61784,0.19455 -1.33366,0.14664 -2.6176,-0.003 -0.0972,-1.383 -0.24354,-2.96361 -0.1463,-1.63 -0.34198,-3.26007 -0.19563,-1.67944 -0.39143,-3.21073 -0.14634,-1.58061 -0.29304,-2.86489 0.7418,-0.83876 1.87837,-1.380727 1.13656,-0.541967 2.4209,-0.738047 1.33373,-0.196027 2.66711,-0.0957 1.38278,0.100367 2.51822,0.546167 1.13543,0.4458 1.92474,1.236937 0.83871,0.79118 1.08434,1.9274 0.24564,1.13624 -0.10124,2.12362 -0.2974,0.93805 -0.89087,1.62881 -0.59339,0.64138 -1.38396,0.9368 -0.74112,0.24609 -1.38284,-0.051 -0.59232,-0.29701 -0.93697,-1.2358 -0.34464,-0.93878 -0.14509,-2.66717 z m 8.99917,-9.027807 q 1.43273,-0.393467 2.0741,0.19994 0.64144,0.544007 0.64042,1.433001 -9.7e-4,0.839607 -0.54521,1.678591 -0.4948,0.789644 -1.33446,0.838074 -0.83967,0.0484 -1.48116,-0.446207 -0.64143,-0.544007 -0.83819,-1.235671 -0.19671,-0.741057 0.10044,-1.432164 0.34657,-0.740424 1.38408,-1.035564 z m -1.45474,19.556307 q -0.69077,-0.59345 -0.78869,-1.33441 -0.0485,-0.79027 0.10067,-1.62971 0.14919,-0.88883 0.34777,-1.77761 0.19857,-0.88877 0.15004,-1.62965 -0.0979,-0.74096 -0.49225,-1.43285 -0.39426,-0.74129 -0.34407,-1.43268 0.0504,-0.88894 0.69343,-1.72781 0.64307,-0.88826 1.48325,-1.38119 0.88962,-0.54226 1.77857,-0.49185 0.88899,10e-4 1.43125,0.89065 0.24644,0.44478 0.19637,1.0374 -0.05,0.54322 -0.24831,1.18504 -0.1489,0.64189 -0.29786,1.33316 -0.14897,0.69128 -0.10039,1.38278 0.0486,0.74088 0.24542,1.33378 0.19687,0.59289 0.3938,1.1364 0.19699,0.49411 0.2952,0.98811 0.14766,0.44467 0.0978,0.88911 -0.0995,0.59256 -0.49525,1.18478 -0.39574,0.54282 -1.03825,0.93719 -0.6425,0.39438 -1.53167,0.54151 -0.83984,0.1966 -1.87678,-0.002 z"
       id="text34"
       style="-inkscape-font-specification:'Life is goofy, Normal';fill:#ff0000;stroke-width:1.09984;stroke-linecap:round;stroke-linejoin:round;stroke-miterlimit:0;stroke-opacity:0"
       inkscape:transform-center-x="51.734923"
       aria-label="Nutri" />
    <path
       style="fill:#05ee0e;fill-opacity:1;stroke:#fffefe;stroke-width:0.72;stroke-linecap:round;stroke-linejoin:round;stroke-miterlimit:0;stroke-dasharray:none;stroke-opacity:1"
       d="m 71.06053,47.297657 c -2.08185,-0.77847 -3.3078,-2.54213 -3.70274,-5.32677 -0.26379,-1.85997 0.0119,-4.54266 0.66784,-6.49879 0.33445,-0.99738 0.50783,-1.20102 1.16512,-1.36841 0.90121,-0.229507 2.45462,0.12209 2.8976,0.65585 0.44384,0.53479 0.33514,1.52164 -0.34582,3.13951 -0.69554,1.65254 -0.80895,3.68922 -0.2641,4.74285 0.7915,1.5306 2.96831,1.47681 4.35953,-0.10771 0.91281,-1.03963 0.93475,-1.79871 0.12596,-4.35898 -0.81144,-2.56865 -0.72587,-3.26287 0.48654,-3.94735 1.18204,-0.667337 2.86596,-0.738224 3.03671,-0.12784 0.0636,0.22737 0.18747,2.34694 0.27526,4.71014 0.17908,4.82077 0.0491,5.59707 -1.15484,6.89502 -0.40686,0.43864 -1.2094,1.00961 -1.78343,1.26884 -1.36763,0.6176 -4.50619,0.79383 -5.76363,0.32364 z"
       id="path36" />
    <path
       style="fill:#ee3605;fill-opacity:1;stroke:#fffefe;stroke-width:0.72;stroke-linecap:round;stroke-linejoin:round;stroke-miterlimit:0;stroke-dasharray:none;stroke-opacity:1"
       d="m 47.30536,47.181487 c -0.59825,-0.59825 -0.62563,-0.99534 -0.13418,-1.94569 0.63446,-1.22692 0.85919,-4.55191 0.60034,-8.88253 -0.13038,-2.18127 -0.34886,-4.497445 -0.48552,-5.147082 -0.13666,-0.649637 -0.33625,-1.842021 -0.44354,-2.649745 l -0.19507,-1.468591 0.82012,-0.38917 c 1.42754,-0.677414 2.46391,-0.688794 3.85995,-0.0424 2.08051,0.963357 3.26216,2.390928 7.48099,9.037878 l 0.59949,0.94452 0.18949,-0.70829 c 0.11789,-0.44066 0.0388,-1.64558 -0.20921,-3.188731 -0.2193,-1.364231 -0.40327,-3.259852 -0.40884,-4.212476 -0.01,-1.663074 0.0206,-1.759514 0.76135,-2.421378 1.22635,-1.095734 2.84008,-0.789027 4.2405,0.805954 0.93454,1.064377 1.11492,1.986461 0.92573,4.732276 -0.40668,5.902255 -0.43737,7.801475 -0.16583,10.260495 0.51164,4.63324 0.0429,5.60106 -2.70086,5.57637 -2.53802,-0.0228 -2.91019,-0.34992 -4.48738,-3.94367 -1.81822,-4.14298 -3.59976,-7.01786 -4.3489,-7.01786 -0.2909,0 -0.72803,1.50702 -0.72982,2.51602 -7.9e-4,0.40936 0.21129,1.98792 0.47115,3.50791 0.66596,3.89543 0.69241,3.74467 -0.76775,4.37524 -0.68577,0.29614 -1.93986,0.58642 -2.80517,0.64929 -1.36859,0.0995 -1.62795,0.0507 -2.06704,-0.38837 z"
       id="path37" />
    <path
       style="fill:#e69a17;fill-opacity:1;stroke:#fffefe;stroke-width:0.64285;stroke-linecap:round;stroke-linejoin:round;stroke-miterlimit:0;stroke-dasharray:none;stroke-opacity:1"
       d="m 86.01787,46.974317 c -0.56866,-0.28407 -1.00857,-0.77995 -1.40896,-1.58817 -0.52244,-1.05464 -0.58163,-1.46645 -0.5772,-4.01595 0.003,-1.56245 0.0777,-3.12124 0.16659,-3.46396 0.15315,-0.59041 0.10607,-0.63147 -0.89643,-0.78181 -1.36986,-0.20542 -1.77241,-0.63105 -1.77241,-1.87403 0,-1.586417 0.33785,-1.858834 2.18665,-1.763154 1.79756,0.093 1.82044,0.0666 1.82607,-2.109728 0.003,-1.139044 0.059,-1.267854 0.65287,-1.499744 0.47486,-0.185427 0.96742,-0.175577 1.8308,0.0366 2.09528,0.514967 2.06224,0.458927 1.40691,2.385668 l -0.57248,1.683121 1.88606,-0.16452 1.88604,-0.16452 -0.003,0.902107 c -0.007,1.79075 -1.01125,2.61565 -3.23361,2.65588 -0.94099,0.017 -1.00574,0.0643 -1.2389,0.90384 -0.56798,2.04518 -0.12109,5.25553 0.81716,5.87029 0.47419,0.3107 0.6564,0.29688 1.74542,-0.13237 l 1.21597,-0.47929 0.26017,0.57103 c 0.15355,0.337 0.19484,1.00677 0.10075,1.63419 -0.15138,1.00946 -0.21467,1.08199 -1.25282,1.43572 -1.48254,0.50516 -3.97233,0.48473 -5.02517,-0.0412 z"
       id="path38" />
    <path
       style="fill:#e617bd;fill-opacity:1;stroke:#fffefe;stroke-width:0.64285;stroke-linecap:round;stroke-linejoin:round;stroke-miterlimit:0;stroke-dasharray:none;stroke-opacity:1"
       d="m 94.91306,46.147877 c -0.0748,-0.68213 -0.37213,-3.38536 -0.66062,-6.0072 -0.44579,-4.05135 -0.476,-4.82544 -0.20126,-5.15648 0.56328,-0.67871 2.49317,-1.508134 4.11008,-1.766444 4.77435,-0.762694 8.74521,2.034784 7.72442,5.441874 -0.55551,1.85413 -2.19808,3.07764 -3.35644,2.50014 -0.77779,-0.38777 -1.1487,-1.24499 -1.15277,-2.66418 -0.004,-1.33835 -0.17251,-1.50172 -1.55044,-1.50172 -0.60326,0 -1.00868,0.20905 -1.65093,0.85131 -0.78876,0.78875 -0.83918,0.9233 -0.68623,1.8308 0.0908,0.53872 0.68295,2.16941 1.3159,3.62376 1.43383,3.29454 1.46371,3.73859 0.26495,3.93673 -0.48723,0.0805 -1.59118,0.1476 -2.45322,0.14903 l -1.56735,0.003 z"
       id="path54" />
    <path
       style="fill:#ee3605;fill-opacity:1;stroke:#fffefe;stroke-width:0.64285;stroke-linecap:round;stroke-linejoin:round;stroke-miterlimit:0;stroke-dasharray:none;stroke-opacity:1"
       d="m 108.43906,47.349047 c -0.17986,-0.33609 -0.21879,-1.04497 -0.1135,-2.06703 0.42792,-4.15398 0.42818,-4.18439 0.0419,-4.93129 -0.80495,-1.55661 -0.21618,-3.32264 1.49136,-4.47335 1.00718,-0.67874 2.38351,-0.71429 2.96073,-0.0765 0.32003,0.35362 0.38432,0.6967 0.27669,1.47645 -0.45389,3.28847 -0.44206,4.31506 0.0687,5.96889 0.58457,1.89262 0.49794,2.64142 -0.4053,3.50304 -0.82072,0.78289 -1.70945,1.11127 -3.00756,1.11127 -0.82403,0 -1.09606,-0.10597 -1.31311,-0.51151 z"
       id="path71" />
    <path
       style="fill:#ee3605;fill-opacity:1;stroke:#fffefe;stroke-width:0.64285;stroke-linecap:round;stroke-linejoin:round;stroke-miterlimit:0;stroke-dasharray:none;stroke-opacity:1"
       d="m 110.19792,32.271209 c -0.72441,-0.29233 -1.26549,-1.166864 -1.26549,-2.045368 0,-0.981944 0.91549,-1.737711 2.09889,-1.732701 1.05677,0.005 1.34716,0.18182 1.6645,1.016474 0.30876,0.812097 -0.14082,2.039498 -0.95621,2.610615 -0.61173,0.428477 -0.80673,0.447577 -1.54169,0.15098 z"
       id="path72" />
    <ellipse
       style="fill:url(#radialGradient2050-8-9-8);fill-opacity:1;stroke:#ffffff;stroke-width:0.940863;stroke-linecap:round;stroke-linejoin:round;stroke-miterlimit:0;stroke-dasharray:none;stroke-opacity:1"
       id="path2049-7-6-0"
       cx="84.194511"
       cy="169.23854"
       rx="21.795086"
       ry="23.207825"
       inkscape:export-filename="..\..\..\..\NutriCrush\Assets\HostWithBalls.png"
       inkscape:export-xdpi="96"
       inkscape:export-ydpi="96" />
    <ellipse
       style="fill:url(#radialGradient2050);stroke:#ffffff;stroke-width:0.93209;stroke-linecap:round;stroke-linejoin:round;stroke-miterlimit:0;stroke-dasharray:none;stroke-opacity:1"
       id="path2049"
       cx="58.333637"
       cy="162.86696"
       rx="21.591774"
       ry="22.991337" />
    <ellipse
       style="fill:url(#radialGradient2050-8-9);fill-opacity:1;stroke:#ffffff;stroke-width:0.996273;stroke-linecap:round;stroke-linejoin:round;stroke-miterlimit:0;stroke-dasharray:none;stroke-opacity:1"
       id="path2049-7-6"
       cx="67.703514"
       cy="137.44669"
       rx="23.078722"
       ry="24.574671" />
    <rect
       style="fill:#ffff00;fill-opacity:0;stroke:#000000;stroke-width:0;stroke-dasharray:none;stroke-opacity:0.916172"
       id="rect2753"
       width="135.46666"
       height="135.46666"
       x="10.632554"
       y="85.066727"
       rx="14.248458" />
    <rect
       style="fill:#ffff00;fill-opacity:0;stroke:#000000;stroke-width:0;stroke-dasharray:none;stroke-opacity:0.916172"
       id="rect2753-4"
       width="135.46666"
       height="135.46666"
       x="166.22284"
       y="84.092377"
       rx="14.248458"
       inkscape:export-filename="Icon Foreground.png"
       inkscape:export-xdpi="96"
       inkscape:export-ydpi="96" />
    <path
       style="fill:#ee3605;fill-opacity:1;stroke:#fffefe;stroke-width:1.53984;stroke-linecap:round;stroke-linejoin:round;stroke-miterlimit:0;stroke-dasharray:none;stroke-opacity:1"
       d="m 215.74163,174.69651 c -1.27947,-1.27942 -1.33802,-2.1287 -0.28698,-4.16117 1.35688,-2.62399 1.83751,-9.73499 1.28392,-18.99676 -0.27891,-4.66507 -0.7461,-9.61858 -1.03837,-11.00794 -0.29226,-1.38937 -0.71914,-3.9395 -0.94857,-5.66695 l -0.41722,-3.14081 1.75397,-0.83232 c 3.05304,-1.44878 5.2695,-1.4731 8.25518,-0.0907 4.44952,2.0603 6.97666,5.1134 15.99935,19.32903 l 1.28211,2.02002 0.40526,-1.51478 c 0.2522,-0.94246 0.0829,-3.51939 -0.44743,-6.81966 -0.469,-2.91766 -0.86245,-6.97176 -0.87438,-9.00908 -0.0218,-3.55679 0.0441,-3.76305 1.6283,-5.17854 2.62275,-2.3434 6.07397,-1.6875 9.06902,1.72366 1.99868,2.27634 2.38444,4.24838 1.97983,10.1208 -0.86974,12.62295 -0.93537,16.68479 -0.35466,21.9438 1.09424,9.90898 0.0916,11.97885 -5.77624,11.92601 -5.428,-0.0491 -6.22395,-0.74836 -9.59702,-8.4342 -3.88859,-8.86046 -7.6987,-15.00887 -9.30088,-15.00887 -0.62214,0 -1.55702,3.22303 -1.56084,5.38091 -0.002,0.87549 0.45188,4.25155 1.00762,7.50225 1.42427,8.33106 1.48086,8.00867 -1.64194,9.35722 -1.46664,0.63335 -4.14874,1.25416 -5.99933,1.38862 -2.92697,0.21275 -3.48166,0.1087 -4.42073,-0.83061 z"
       id="path37-3-3"
       inkscape:export-filename="Icon Foreground.png"
       inkscape:export-xdpi="96"
       inkscape:export-ydpi="96" />
    <rect
       style="fill:#ffff00;fill-opacity:0;stroke:#000000;stroke-width:0;stroke-dasharray:none;stroke-opacity:0.916172"
       id="rect2753-8"
       width="21.900452"
       height="21.900452"
       x="66.900383"
       y="109.64724"
       rx="2.3035011" />
  </g>
</svg>
