<?xml version="1.0" encoding="UTF-8" standalone="no"?>
<!-- Generator: Adobe Illustrator 23.0.1, SVG Export Plug-In . SVG Version: 6.00 Build 0)  -->

<svg
   version="1.1"
   id="Layer_1"
   x="0px"
   y="0px"
   viewBox="0 0 512 512"
   xml:space="preserve"
   sodipodi:docname="lock.svg"
   inkscape:version="1.2.1 (9c6d41e410, 2022-07-14)"
   style="enable-background:new 0 0 512 512;"
   xmlns:inkscape="http://www.inkscape.org/namespaces/inkscape"
   xmlns:sodipodi="http://sodipodi.sourceforge.net/DTD/sodipodi-0.dtd"
   xmlns="http://www.w3.org/2000/svg"
   xmlns:svg="http://www.w3.org/2000/svg"><defs
   id="defs7" /><sodipodi:namedview
   id="namedview5"
   pagecolor="#ffffff"
   bordercolor="#666666"
   borderopacity="1.0"
   inkscape:pageshadow="2"
   inkscape:pageopacity="0.0"
   inkscape:pagecheckerboard="0"
   showgrid="false"
   inkscape:zoom="0.60283614"
   inkscape:cx="150.12371"
   inkscape:cy="497.64767"
   inkscape:window-width="1920"
   inkscape:window-height="1017"
   inkscape:window-x="3832"
   inkscape:window-y="-8"
   inkscape:window-maximized="1"
   inkscape:current-layer="Layer_1"
   inkscape:showpageshadow="2"
   inkscape:deskcolor="#d1d1d1" />


<path
   style="fill:#999999;fill-opacity:1;stroke-width:2;stroke:#ffffff;stroke-opacity:1;stroke-miterlimit:4;stroke-dasharray:none"
   d="m 87.42785,510.01498 c -0.176354,-0.28535 -1.481123,-0.69283 -2.899487,-0.90553 -1.418365,-0.2127 -3.046019,-0.90294 -3.61701,-1.53388 -0.570991,-0.63094 -1.364913,-1.14716 -1.764271,-1.14716 -0.399358,0 -2.403815,-1.66767 -4.454349,-3.70594 -4.218973,-4.19373 -5.194451,-5.36546 -5.194451,-6.23952 0,-0.33619 -0.263918,-0.61124 -0.586484,-0.61124 -0.322565,0 -0.586483,-0.51226 -0.586483,-1.13836 0,-0.62609 -0.233999,-1.28297 -0.519998,-1.45973 -0.285999,-0.17675 -0.69023,-1.22879 -0.898293,-2.33786 -0.208062,-1.10907 -0.634982,-2.10205 -0.948711,-2.20662 -0.759918,-0.25331 -0.785305,-272.69813 -0.02546,-273.16774 0.29973,-0.18525 0.630752,-1.12523 0.735606,-2.08885 0.104853,-0.96362 0.520539,-2.10079 0.923747,-2.52704 0.403207,-0.42625 0.733104,-1.15202 0.733104,-1.61283 0,-0.46081 0.263918,-0.83783 0.586483,-0.83783 0.322566,0 0.586484,-0.38649 0.586484,-0.85886 0,-1.21351 8.83948,-10.28433 10.022041,-10.28433 0.537636,0 1.306068,-0.39588 1.707627,-0.87972 0.401558,-0.48385 1.225626,-0.87973 1.831262,-0.87973 0.605635,0 1.101155,-0.26392 1.101155,-0.58648 0,-0.32257 0.791752,-0.58649 1.75945,-0.58649 0.967697,0 1.75945,-0.26391 1.75945,-0.58648 0,-0.33861 1.850319,-0.58648 4.37799,-0.58648 3.728152,0 4.468108,-0.16839 4.985109,-1.13441 0.916308,-1.71214 0.825294,-44.15853 -0.09666,-45.08048 -0.461366,-0.46137 -0.485389,-0.70378 -0.06974,-0.70378 0.380585,0 0.801017,-2.2272 1.051755,-5.5716 0.229746,-3.06437 0.657007,-5.57159 0.94947,-5.57159 0.292462,0 0.53175,-1.56151 0.53175,-3.47003 0,-1.90851 0.251776,-3.55799 0.559502,-3.66552 0.307722,-0.10752 0.662462,-1.40773 0.788292,-2.88936 0.12584,-1.48162 0.37794,-2.93518 0.56022,-3.23012 0.18229,-0.29495 0.51672,-1.52394 0.74319,-2.73111 0.22646,-1.20716 0.6463,-2.19484 0.93297,-2.19484 0.28666,0 0.52121,-0.90814 0.52121,-2.01808 0,-1.10994 0.24095,-2.167 0.53545,-2.34901 0.2945,-0.18201 0.72301,-1.44105 0.95224,-2.79786 0.22923,-1.3568 0.64807,-2.93892 0.93075,-3.51582 0.28269,-0.5769 0.74433,-1.51942 1.02588,-2.0945 0.28155,-0.57508 0.71025,-1.96064 0.95265,-3.07903 0.24241,-1.1184 0.93576,-2.733984 1.54078,-3.590191 0.60503,-0.856207 1.10005,-1.996712 1.10005,-2.534447 0,-0.537735 0.39588,-1.373579 0.87972,-1.857428 0.48385,-0.483849 0.87973,-1.399742 0.87973,-2.03532 0,-0.635578 0.52783,-1.722162 1.17297,-2.414629 0.64513,-0.692472 1.17296,-1.718255 1.17296,-2.27952 0,-0.56127 0.39588,-1.416363 0.87973,-1.900212 0.48385,-0.483849 0.87972,-1.162498 0.87972,-1.508101 0,-0.345609 0.20166,-0.628376 0.44813,-0.628376 0.24648,0 0.90749,-0.98969 1.46892,-2.199312 1.11361,-2.399327 2.27618,-4.378316 2.84239,-4.838488 0.19845,-0.161283 0.54613,-0.887056 0.77263,-1.61283 0.2265,-0.725773 0.65794,-1.319587 0.95877,-1.319587 0.30083,0 0.54696,-0.395877 0.54696,-0.879725 0,-0.483849 0.24614,-0.879725 0.54696,-0.879725 0.30083,0 0.70474,-0.497092 0.89757,-1.104648 0.19283,-0.607561 1.13433,-1.924744 2.09221,-2.92708 0.95789,-1.002335 1.74161,-2.048369 1.74161,-2.324515 0,-0.276146 0.53688,-1.136276 1.19307,-1.911408 2.75763,-3.257481 5.39071,-6.2138 7.02896,-7.891839 0.96151,-0.984856 1.74819,-2.011953 1.74819,-2.28244 0,-0.430166 0.75839,-1.298218 3.97655,-4.55155 2.73214,-2.762001 5.36922,-5.157723 5.67733,-5.157723 0.19917,0 1.39068,-0.989691 2.6478,-2.199313 3.3733,-3.245845 5.32495,-4.838488 5.92913,-4.838488 0.29516,0 0.53666,-0.207015 0.53666,-0.460033 0,-0.253018 0.7989,-0.931954 1.77533,-1.508746 0.97643,-0.576792 2.41598,-1.689365 3.199,-2.472384 0.78302,-0.783019 1.81376,-1.423671 2.29053,-1.423671 0.47677,0 1.03439,-0.527835 1.23915,-1.172967 0.20476,-0.645131 0.85002,-1.172966 1.43392,-1.172966 0.5839,0 1.39018,-0.395877 1.79174,-0.879725 0.40156,-0.483849 1.09367,-0.879726 1.53802,-0.879726 0.44435,0 0.80791,-0.201335 0.80791,-0.447411 0,-0.447948 1.73778,-1.507348 3.66552,-2.23461 0.56449,-0.21296 1.02635,-0.620337 1.02635,-0.905281 0,-0.284945 0.52783,-0.518081 1.17297,-0.518081 0.64513,0 1.17296,-0.2381 1.17296,-0.529111 0,-0.291011 0.72578,-0.806154 1.61283,-1.144762 0.88706,-0.338607 2.27262,-0.987653 3.07904,-1.442324 0.80641,-0.454671 3.04971,-1.554662 4.98511,-2.444425 1.93539,-0.889762 4.21941,-1.981998 5.0756,-2.427189 0.85618,-0.445192 2.10979,-0.80944 2.78579,-0.80944 0.67601,0 1.2291,-0.263918 1.2291,-0.586483 0,-0.322566 0.65979,-0.586484 1.46621,-0.586484 0.80641,0 1.46621,-0.263917 1.46621,-0.586483 0,-0.322566 0.36556,-0.586484 0.81238,-0.586484 1.13715,0 7.04252,-1.9097532 7.39839,-2.392585 0.16128,-0.2188276 1.67851,-0.5864934 3.37162,-0.8170359 1.69311,-0.230542 3.22621,-0.6583602 3.40689,-0.9507068 0.18068,-0.2923465 1.36861,-0.5315391 2.63983,-0.5315391 1.27123,0 2.31132,-0.2639175 2.31132,-0.5864834 0,-0.3225658 0.79176,-0.5864834 1.75945,-0.5864834 0.9677,0 1.75945,-0.2299193 1.75945,-0.5109319 0,-0.2810125 2.63656,-0.6978546 5.85902,-0.9263158 3.22246,-0.2284611 6.00917,-0.6583355 6.19269,-0.9552765 0.44259,-0.7161245 39.96717,-0.7161245 40.40976,0 0.18352,0.296941 2.97023,0.7268154 6.19269,0.9552765 3.22246,0.2284612 5.85902,0.6453033 5.85902,0.9263158 0,0.2810126 0.77617,0.5109319 1.72483,0.5109319 0.94866,0 1.88795,0.2639176 2.08731,0.5864834 0.19936,0.3225659 1.25503,0.5864834 2.34593,0.5864834 1.09091,0 2.1313,0.2391926 2.31198,0.5315391 0.18068,0.2923466 1.71378,0.7201648 3.40689,0.9507068 1.69311,0.2305425 3.21034,0.5982083 3.37162,0.8170359 0.35587,0.4828318 6.26124,2.392585 7.39839,2.392585 0.44682,0 0.81238,0.263918 0.81238,0.586484 0,0.322566 0.6598,0.586483 1.46621,0.586483 0.80642,0 1.46621,0.230187 1.46621,0.511526 0,0.281339 1.05567,0.680334 2.34593,0.886656 1.29027,0.206322 2.34594,0.635928 2.34594,0.954683 0,0.318753 0.32989,0.575426 0.7331,0.570382 0.70745,-0.0089 5.63208,2.228861 8.65063,3.930774 0.80642,0.454671 2.19198,1.103717 3.07904,1.442324 0.88705,0.338608 1.61283,0.853751 1.61283,1.144762 0,0.291011 0.52783,0.529111 1.17296,0.529111 0.64514,0 1.17297,0.201335 1.17297,0.447412 0,0.447947 1.73777,1.507347 3.66552,2.234609 0.56449,0.21296 1.02635,0.620337 1.02635,0.905281 0,0.284945 0.36356,0.518081 0.80791,0.518081 0.44435,0 1.13646,0.395877 1.53802,0.879726 0.40156,0.483848 1.19739,0.879725 1.76852,0.879725 0.57112,0 1.19512,0.408392 1.38666,0.907537 0.19154,0.499146 1.1327,1.180998 2.09147,1.515228 0.95877,0.334229 1.88444,1.05263 2.05705,1.596445 0.17259,0.543815 1.23905,1.487027 2.36989,2.096027 1.13084,0.608999 2.05608,1.329629 2.05608,1.601401 0,0.271771 0.2415,0.494129 0.53666,0.494129 0.58963,0 2.0776,1.221271 6.58799,5.407191 1.64041,1.522409 3.46608,2.921476 4.05704,3.109038 0.59095,0.187562 1.23342,0.841857 1.4277,1.453989 0.19429,0.612131 0.86758,1.27621 1.49621,1.47573 0.62863,0.19952 1.14297,0.606601 1.14297,0.904624 0,0.298023 0.79175,1.298501 1.75945,2.223285 0.9677,0.924784 1.75945,1.902732 1.75945,2.173217 0,0.270487 0.78368,1.297584 1.74152,2.28244 4.32301,4.444961 6.72333,7.273386 8.47504,9.986594 0.61934,0.959287 1.60601,2.259315 2.19261,2.888946 0.58659,0.629637 1.21929,1.626102 1.406,2.214374 0.18671,0.588266 0.58561,1.069576 0.88644,1.069576 0.30082,0 0.54696,0.395876 0.54696,0.879725 0,0.483848 0.25889,0.879725 0.57531,0.879725 0.31642,0 0.7409,0.659794 0.9433,1.466208 0.2024,0.806415 0.6033,1.466209 0.8909,1.466209 0.28759,0 0.5229,0.380909 0.5229,0.846471 0,0.465557 0.49238,1.191341 1.09418,1.612853 0.60179,0.421511 1.28255,1.624107 1.5128,2.672429 0.23025,1.048327 0.66159,1.906047 0.95853,1.906047 0.29693,0 0.53988,0.282767 0.53988,0.628376 0,0.345603 0.39587,1.024252 0.87972,1.508101 0.48385,0.483849 0.87973,1.338942 0.87973,1.900212 0,0.561265 0.52783,1.587048 1.17296,2.27952 0.64514,0.692467 1.17297,1.765585 1.17297,2.384706 0,0.619122 0.39588,1.454227 0.87973,1.855786 0.48384,0.40156 0.87972,1.307823 0.87972,2.013914 0,0.706097 0.52784,1.850373 1.17297,2.542845 0.64513,0.692467 1.17296,1.660599 1.17296,2.151409 0,0.894525 1.43635,5.111055 2.31759,6.803505 0.2584,0.49625 0.65736,2.0124 0.88659,3.3692 0.22923,1.35681 0.65774,2.61585 0.95224,2.79786 0.2945,0.18201 0.53545,1.09153 0.53545,2.02115 0,0.92963 0.26392,1.85334 0.58648,2.05269 0.32257,0.19936 0.58649,0.85274 0.58649,1.45195 0,0.59922 0.24939,1.17745 0.55421,1.28498 0.30481,0.10752 0.72699,2.04291 0.93817,4.30088 0.21118,2.25796 0.62158,4.19335 0.912,4.30087 0.29042,0.10753 0.52804,1.75701 0.52804,3.66552 0,1.90852 0.23928,3.47003 0.53175,3.47003 0.29246,0 0.71972,2.50722 0.94946,5.57159 0.22975,3.06438 0.58427,5.57155 0.78784,5.57149 0.20357,-6e-5 0.37012,10.49066 0.37012,23.31272 v 23.31282 l 4.39794,0.17525 c 2.41887,0.0964 4.64897,0.4263 4.95578,0.73311 0.30682,0.30681 0.99235,0.55784 1.52341,0.55784 1.14851,0 4.49868,1.60287 4.98088,2.38307 0.18673,0.30215 0.74198,0.54935 1.2339,0.54935 0.74743,0 2.89849,1.81541 8.14985,6.87814 0.41079,0.39604 1.09995,1.51769 1.53147,2.49256 0.43152,0.97487 0.98407,1.77249 1.2279,1.77249 0.24382,0 0.44331,0.37388 0.44331,0.83085 0,0.45696 0.27614,0.92289 0.61365,1.03539 0.3375,0.11251 0.74287,1.24644 0.90081,2.51985 0.15795,1.27342 0.54272,2.47325 0.85507,2.66629 0.74837,0.46251 0.78099,272.78941 0.0327,273.25186 -0.29434,0.18191 -0.72071,1.31983 -0.9475,2.52871 -0.22677,1.20889 -0.64686,2.19797 -0.93353,2.19797 -0.28667,0 -0.52122,0.52784 -0.52122,1.17297 0,0.64513 -0.26391,1.17297 -0.58648,1.17297 -0.32256,0 -0.58648,0.27505 -0.58648,0.61124 0,0.84237 -0.89174,1.93387 -5.09281,6.23365 -1.99463,2.04149 -3.99909,3.71181 -4.45435,3.71181 -0.45526,0 -1.29492,0.51622 -1.86591,1.14716 -0.57099,0.63094 -2.19865,1.32118 -3.61701,1.53388 -1.41836,0.2127 -2.72314,0.62018 -2.89949,0.90553 -0.42525,0.68808 -336.719047,0.68808 -337.144299,0 z m 210.61522,-62.01555 c 0.20126,-0.52449 0.0655,-1.78447 -0.30171,-2.79995 -0.72087,-1.99354 -1.65038,-7.17389 -2.37825,-13.25446 -0.25098,-2.09668 -0.72782,-4.33998 -1.05965,-4.98511 -0.33182,-0.64513 -0.64066,-2.34758 -0.68631,-3.78321 -0.0456,-1.43563 -0.34673,-2.87398 -0.66908,-3.19633 -0.32236,-0.32236 -0.5861,-1.84911 -0.5861,-3.3928 0,-1.54369 -0.24518,-3.93214 -0.54485,-5.30768 -1.08228,-4.96789 -2.38757,-12.65648 -2.38757,-14.06356 0,-0.79078 -0.19793,-1.63324 -0.43986,-1.87213 -0.24192,-0.23888 -0.75209,-3.11998 -1.13371,-6.40244 -0.38162,-3.28246 -0.96744,-7.28769 -1.30181,-8.90052 -0.78031,-3.76382 -2.33615,-13.72543 -2.79376,-17.88775 -0.19505,-1.77411 -0.61876,-3.55996 -0.94158,-3.96855 -0.42775,-0.54139 0.26989,-1.66394 2.57202,-4.13858 4.6969,-5.04885 7.06557,-8.41803 8.93776,-12.71303 0.56243,-1.29026 1.27373,-2.8042 1.58067,-3.36432 0.30694,-0.56011 0.56743,-1.61578 0.57886,-2.34593 0.0114,-0.73015 0.39795,-1.98734 0.85894,-2.79376 0.5869,-1.02667 0.83816,-3.40016 0.83816,-7.91752 0,-4.51737 -0.25126,-6.89085 -0.83816,-7.91753 -0.46099,-0.80641 -0.84752,-2.19198 -0.85894,-3.07904 -0.0114,-0.88705 -0.25394,-1.61282 -0.5389,-1.61282 -0.28496,0 -0.66462,-0.59382 -0.84368,-1.31959 -0.67626,-2.74099 -1.87409,-5.71822 -2.30061,-5.71822 -0.24364,0 -0.44298,-0.28152 -0.44298,-0.62561 0,-0.34409 -0.72577,-1.59746 -1.61283,-2.78527 -0.88706,-1.18781 -1.80114,-2.42381 -2.0313,-2.74666 -2.70052,-3.78811 -11.05562,-10.85047 -12.83662,-10.85047 -0.32422,0 -1.56047,-0.6598 -2.74722,-1.46621 -1.18674,-0.80642 -2.75625,-1.46621 -3.48778,-1.46621 -0.73154,0 -1.33007,-0.22716 -1.33007,-0.50479 0,-0.8242 -5.71005,-1.4952 -12.60939,-1.48175 -7.07862,0.0138 -10.75636,0.48712 -13.57775,1.74747 -1.01645,0.45405 -2.1381,0.82555 -2.49256,0.82555 -0.35446,0 -0.64447,0.26392 -0.64447,0.58649 0,0.32256 -0.52783,0.58648 -1.17297,0.58648 -0.64513,0 -1.17296,0.20133 -1.17296,0.44741 0,0.24608 -0.50231,0.70793 -1.11626,1.02635 -0.61393,0.31841 -2.08043,1.07796 -3.2589,1.68788 -2.92467,1.51369 -7.74655,6.30533 -11.05777,10.98844 -1.51143,2.13764 -2.74806,4.04383 -2.74806,4.23597 0,0.19215 -0.62017,1.74214 -1.37815,3.44442 -3.12279,7.01318 -3.43927,8.72433 -3.22349,17.42843 0.13704,5.52804 0.44125,8.42718 0.93612,8.92151 0.40321,0.40277 0.73311,1.19134 0.73311,1.75238 0,0.87477 1.36683,3.7316 5.02696,10.50687 0.44511,0.82395 2.49544,3.24333 4.55629,5.37641 l 3.747,3.87832 -0.79715,4.30057 c -0.43843,2.36532 -0.92557,5.4882 -1.08253,6.93975 -0.15696,1.45154 -0.53164,3.56288 -0.83263,4.69186 -0.59189,2.22018 -1.58507,8.73839 -2.18937,14.36885 -0.20772,1.93539 -0.57594,3.78282 -0.81825,4.10538 -0.52305,0.69625 -0.97672,3.64913 -1.86969,12.16953 -0.36341,3.46758 -0.88002,6.3047 -1.148,6.3047 -0.26799,0 -0.48725,1.53952 -0.48725,3.42115 0,1.88164 -0.19794,3.61775 -0.43986,3.85803 -0.57397,0.57008 -1.81685,7.70902 -2.28089,13.10112 -0.20126,2.3386 -0.57071,4.252 -0.821,4.252 -0.25029,0 -0.58913,1.38557 -0.75299,3.07904 -0.16385,1.69347 -0.62318,4.56843 -1.02074,6.38881 -1.25116,5.72897 -5.54178,5.19424 41.67745,5.19424 37.9405,0 41.70994,-0.0855 42.04307,-0.95361 z m 54.74288,-255.65238 c 0.95208,-1.14719 0.47437,-42.08251 -0.50487,-43.26243 -0.33746,-0.40661 -0.67182,-2.31493 -0.74302,-4.24071 -0.0712,-1.92578 -0.38389,-4.16121 -0.69486,-4.96762 -0.31099,-0.80642 -0.77552,-1.99404 -1.0323,-2.63918 -0.25678,-0.64513 -0.62342,-2.49255 -0.81476,-4.10538 -0.19133,-1.61283 -0.60817,-3.02039 -0.92631,-3.12791 -0.31813,-0.10753 -0.57842,-0.70134 -0.57842,-1.31959 0,-0.61825 -0.2795,-1.12409 -0.6211,-1.12409 -0.3416,0 -0.46606,-0.25085 -0.27658,-0.55744 0.32373,-0.5238 -0.0569,-1.51409 -3.56817,-9.28219 -0.76944,-1.70229 -1.39898,-3.35177 -1.39898,-3.66552 0,-0.31375 -0.26392,-0.57045 -0.58649,-0.57045 -0.32256,0 -0.58648,-0.39588 -0.58648,-0.87973 0,-0.48385 -0.25889,-0.87972 -0.57531,-0.87972 -0.31642,0 -0.74091,-0.6598 -0.94331,-1.46621 -0.20239,-0.80642 -0.6033,-1.46621 -0.8909,-1.46621 -0.28759,0 -0.5229,-0.35734 -0.5229,-0.79409 0,-0.43674 -0.65979,-1.50601 -1.46621,-2.37615 -0.80641,-0.87013 -1.46621,-1.83015 -1.46621,-2.13336 0,-0.30321 -0.52783,-0.88093 -1.17296,-1.28382 -0.64513,-0.40289 -1.17297,-1.15229 -1.17297,-1.66532 0,-0.51304 -0.65979,-1.285897 -1.46621,-1.717479 -0.80641,-0.431581 -1.47004,-1.069992 -1.47472,-1.418691 -0.008,-0.624394 -10.16545,-10.89746 -10.77441,-10.89746 -0.17208,0 -1.36556,-0.989691 -2.65218,-2.199313 -3.2562,-3.06132 -4.02634,-3.665521 -4.67225,-3.665521 -0.3093,0 -0.65034,-0.197938 -0.75786,-0.439862 -0.25293,-0.569083 -4.23201,-3.077355 -7.2333,-4.559615 -1.29026,-0.637232 -2.4339,-1.356537 -2.54142,-1.598461 -0.10753,-0.241924 -0.70134,-0.439862 -1.31959,-0.439862 -0.61825,0 -1.1241,-0.263918 -1.1241,-0.586484 0,-0.322566 -0.47739,-0.586483 -1.06087,-0.586483 -0.58348,0 -1.57317,-0.387484 -2.19931,-0.861075 -0.62614,-0.473586 -1.73226,-0.869462 -2.45803,-0.879725 -0.72577,-0.01026 -1.31959,-0.22955 -1.31959,-0.487315 0,-0.517754 -2.76981,-1.56889 -5.71148,-2.167496 -1.04465,-0.212577 -2.04991,-0.630112 -2.23393,-0.927864 -0.18402,-0.297746 -1.35268,-0.541359 -2.59702,-0.541359 -1.24435,0 -2.35568,-0.279677 -2.46962,-0.621502 -0.11394,-0.341826 -2.31326,-0.773085 -4.88736,-0.95835 -2.57411,-0.185264 -4.99055,-0.581468 -5.36986,-0.880464 -0.89487,-0.705375 -23.13293,-0.711979 -23.59268,-0.007 -0.19248,0.295142 -2.58629,0.686198 -5.31958,0.869016 -2.74309,0.183476 -5.06414,0.615984 -5.1806,0.965352 -0.11604,0.348125 -1.22909,0.632956 -2.47344,0.632956 -1.24434,0 -2.413,0.243614 -2.59702,0.54136 -0.18402,0.297751 -1.18928,0.715286 -2.23393,0.927863 -2.94167,0.598606 -5.71148,1.649743 -5.71148,2.167496 0,0.257765 -0.59382,0.477057 -1.31959,0.487315 -0.72577,0.01026 -1.83189,0.40614 -2.45803,0.879725 -0.62614,0.473591 -1.61583,0.861075 -2.19931,0.861075 -0.58348,0 -1.06087,0.263918 -1.06087,0.586483 0,0.322566 -0.52784,0.586484 -1.17297,0.586484 -0.64513,0 -1.17297,0.235309 -1.17297,0.522903 0,0.287599 -0.65979,0.688502 -1.46621,0.890897 -0.80641,0.202401 -1.4662,0.626886 -1.4662,0.943306 0,0.316419 -0.40154,0.575311 -0.8923,0.575311 -1.0363,0 -5.41497,2.732397 -6.80078,4.243841 -0.52169,0.568982 -1.18148,1.037799 -1.46621,1.041823 -0.28473,0.0041 -1.65081,1.059687 -3.03573,2.345933 -1.38493,1.286211 -2.65922,2.338591 -2.83177,2.338591 -0.48847,0 -10.77848,10.340559 -10.77848,10.831433 0,0.239901 -0.6598,0.955171 -1.46621,1.589499 -0.80642,0.634329 -1.46621,1.466559 -1.46621,1.849399 0,0.38285 -0.52784,1.02573 -1.17297,1.42862 -0.64513,0.40289 -1.17296,0.98061 -1.17296,1.28382 0,0.30321 -0.6598,1.26323 -1.46621,2.13336 -0.80642,0.87014 -1.46621,1.93941 -1.46621,2.37615 0,0.43675 -0.23531,0.79409 -0.5229,0.79409 -0.2876,0 -0.68851,0.65979 -0.8909,1.46621 -0.2024,0.80641 -0.62689,1.46621 -0.94331,1.46621 -0.31642,0 -0.57531,0.39587 -0.57531,0.87972 0,0.48385 -0.25196,0.87973 -0.55991,0.87973 -0.30794,0 -0.7332,0.92371 -0.94499,2.05269 -0.2118,1.12898 -0.55521,2.05269 -0.76314,2.05269 -0.20792,0 -0.73328,0.85773 -1.16745,1.90607 -0.43418,1.04834 -1.29786,3.04079 -1.91928,4.42767 -0.62142,1.38689 -0.97483,2.77245 -0.78535,3.07904 0.18948,0.30659 0.065,0.55744 -0.27658,0.55744 -0.3416,0 -0.6211,0.50584 -0.6211,1.12409 0,0.61825 -0.26739,1.21323 -0.59419,1.32216 -0.32681,0.10893 -0.73516,1.63643 -0.90744,3.39445 -0.17228,1.75801 -0.52829,3.47231 -0.79114,3.80957 -0.50086,0.64264 -1.31522,3.3077 -1.62105,5.30505 -0.0988,0.64514 -0.35342,4.80184 -0.56586,9.23712 -0.21243,4.43528 -0.611,8.06414 -0.8857,8.06414 -0.82592,0 -0.62679,31.89466 0.20433,32.72578 0.54165,0.54165 22.81779,0.70378 96.69795,0.70378 85.53789,0 96.07545,-0.098 96.74046,-0.89923 z"
   id="path5668" /><path
   style="fill:#999999;fill-opacity:1;stroke:#ffffff;stroke-width:2;stroke-miterlimit:4;stroke-dasharray:none;stroke-opacity:1"
   d="m 98.053911,168.76041 c 0.06517,-13.66483 0.387832,-25.25422 0.77967,-28.0044 0.367666,-2.58052 0.891831,-6.27537 1.16481,-8.21076 0.272979,-1.9354 0.747739,-4.44262 1.055009,-5.5716 0.30728,-1.12898 0.89984,-3.58251 1.31679,-5.4523 0.41695,-1.86978 0.97691,-3.53484 1.24435,-3.70013 0.26745,-0.16529 0.48626,-0.84334 0.48626,-1.50678 0,-2.60562 4.78828,-16.06237 7.96271,-22.378005 0.459,-0.913196 0.83454,-1.999252 0.83454,-2.413462 0,-0.414209 0.52784,-1.42414 1.17297,-2.24429 0.64513,-0.82015 1.17297,-1.800709 1.17297,-2.179014 0,-0.378305 0.88528,-2.052147 1.9673,-3.719636 1.08202,-1.667496 2.84791,-4.615314 3.9242,-6.550709 1.07629,-1.935395 2.17039,-3.606873 2.43132,-3.714393 0.26093,-0.107526 0.47443,-0.44856 0.47443,-0.757859 0,-0.3093 0.27641,-0.881121 0.61426,-1.270716 0.33784,-0.38959 1.6535,-2.159896 2.92369,-3.934008 3.50133,-4.890427 11.50561,-14.313736 16.13191,-18.991826 6.13422,-6.202893 20.36861,-17.946569 21.76109,-17.953359 0.3687,-0.0018 0.82379,-0.403106 1.01132,-0.891795 0.18753,-0.48869 0.94153,-1.152403 1.67557,-1.474916 0.73404,-0.322515 2.12637,-1.107184 3.09407,-1.74371 0.9677,-0.636526 2.61718,-1.6052 3.66552,-2.152608 1.04834,-0.547408 1.90607,-1.210325 1.90607,-1.473147 0,-0.262823 0.50584,-0.47786 1.1241,-0.47786 0.61824,0 1.21206,-0.205565 1.31959,-0.456811 0.29281,-0.684213 16.46189,-8.344458 17.60875,-8.342303 0.54546,10e-4 1.15485,-0.262054 1.35421,-0.58462 0.19935,-0.322566 0.87472,-0.586483 1.50082,-0.586483 0.62609,0 1.13835,-0.263918 1.13835,-0.586484 0,-0.322566 0.46186,-0.5839 1.02635,-0.580744 0.56449,0.0032 3.00572,-0.649274 5.42497,-1.4498461 7.06838,-2.3390567 10.38931,-3.2477603 11.86919,-3.2477603 0.76193,0 1.63605,-0.2214277 1.94249,-0.4920616 C 221.44,5.3953802 223.14227,4.8789064 224.91638,4.5182943 233.25497,2.8233654 240.00494,2.3547712 256,2.3604181 c 16.76893,0.00592 24.58289,0.6024345 31.96334,2.4400686 1.9354,0.4818874 4.44262,1.1020136 5.5716,1.3780584 6.27143,1.5334159 8.97519,2.3077646 11.96894,3.4278722 1.828,0.6839387 3.84156,1.2435257 4.47459,1.2435257 0.63303,0 1.15097,0.199659 1.15097,0.443687 0,0.244028 1.11069,0.790333 2.46821,1.214012 4.23282,1.321056 18.78313,8.178611 19.13392,9.017814 0.10753,0.257219 0.70135,0.467671 1.31959,0.467671 0.61826,0 1.1241,0.223836 1.1241,0.497412 0,0.273576 1.05567,0.973452 2.34593,1.55528 1.29026,0.581828 2.34593,1.250923 2.34593,1.486878 0,0.235955 0.46186,0.595967 1.02635,0.800026 1.46457,0.529433 3.48241,1.764213 4.73401,2.896894 0.59211,0.535853 1.33968,0.974278 1.66126,0.974278 0.32158,0 1.2245,0.683782 2.00651,1.519517 0.782,0.835734 2.74141,2.469725 4.35423,3.631092 1.61283,1.161366 4.13881,3.182738 5.61327,4.491938 1.47447,1.309199 4.07765,3.567991 5.78485,5.019537 4.18657,3.55964 4.50752,3.881598 6.33567,6.355462 0.87326,1.181702 3.11401,3.809232 4.97944,5.838957 1.86544,2.029726 4.96281,5.856531 6.88306,8.504011 1.92025,2.64748 3.76623,5.132357 4.10218,5.521947 0.33595,0.389595 0.61081,0.983409 0.61081,1.319587 0,0.336184 0.26392,0.611239 0.58649,0.611239 0.32256,0 0.58648,0.377027 0.58648,0.837833 0,0.460811 0.3299,1.197728 0.7331,1.637596 0.99827,1.089035 2.0112,2.704087 3.22928,5.148855 0.5625,1.128981 1.17456,2.184651 1.36014,2.345934 0.18557,0.161283 0.81688,1.216953 1.4029,2.345933 0.58603,1.128981 1.29384,2.448568 1.57292,2.932417 0.27908,0.483849 0.79917,1.539519 1.15575,2.345934 0.35659,0.806415 1.01446,2.166722 1.46195,3.022905 0.4475,0.856184 0.81363,1.891075 0.81363,2.299754 0,0.408679 0.36731,1.159712 0.81626,1.668962 0.76599,0.868887 2.92327,6.960885 5.31227,15.001505 0.57503,1.9354 1.25485,4.04674 1.5107,4.69187 0.25584,0.64513 0.65104,1.7008 0.87822,2.34593 0.46603,1.32341 1.87984,8.33771 2.65978,13.19588 0.28482,1.77411 0.81881,4.94112 1.18663,7.0378 0.39306,2.24048 0.77748,13.78615 0.93244,28.00458 l 0.26367,24.19244 h -30.23932 -30.23932 l -0.0316,-17.74112 c -0.0174,-9.75762 -0.27216,-19.72051 -0.56617,-22.13975 -1.13767,-9.36147 -1.70956,-12.69342 -2.56691,-14.95533 -0.48905,-1.29026 -0.9024,-3.00572 -0.91855,-3.81214 -0.0161,-0.80641 -0.4236,-2.22215 -0.90546,-3.14608 -0.48188,-0.92393 -0.87613,-1.94125 -0.87613,-2.26071 0,-1.05054 -5.9665,-14.82235 -6.5083,-15.02238 -0.29123,-0.10752 -0.5295,-0.56938 -0.5295,-1.02634 0,-0.45697 -0.23531,-0.83086 -0.5229,-0.83086 -0.2876,0 -0.6885,-0.65979 -0.8909,-1.46621 -0.2024,-0.80641 -0.62688,-1.4662 -0.9433,-1.4662 -0.31642,0 -0.57532,-0.28374 -0.57532,-0.63052 0,-0.96253 -5.14168,-7.581372 -10.24074,-13.182834 -4.13102,-4.538044 -12.4738,-12.087716 -15.84407,-14.337853 -4.1729,-2.786007 -11.60315,-7.037801 -12.29897,-7.037801 -0.44707,0 -0.90083,-0.197938 -1.00835,-0.439862 -0.26339,-0.59263 -4.42539,-2.492555 -5.46022,-2.492555 -0.45447,0 -1.69912,-0.508481 -2.7659,-1.12996 -1.06678,-0.621484 -2.9322,-1.311195 -4.14539,-1.532698 -1.21318,-0.221503 -2.3504,-0.636727 -2.52716,-0.922726 -0.17676,-0.285999 -0.98198,-0.52 -1.78939,-0.52 -0.80742,0 -2.70524,-0.366417 -4.21739,-0.814261 -9.50257,-2.8143 -31.84229,-2.942786 -42.63025,-0.245186 -1.29026,0.322637 -3.26965,0.724278 -4.39863,0.892534 -1.12898,0.168251 -2.31661,0.508083 -2.63917,0.755174 -0.32257,0.247091 -1.5102,0.637267 -2.63918,0.867057 -1.12898,0.22979 -2.9255,0.920057 -3.99228,1.53393 -1.06678,0.613878 -2.31143,1.116136 -2.7659,1.116136 -1.03483,0 -5.19683,1.899925 -5.46022,2.492555 -0.10752,0.241924 -0.57866,0.439862 -1.04698,0.439862 -0.76171,0 -3.57279,1.522271 -4.32912,2.344327 -0.16128,0.1753 -1.08499,0.665676 -2.05269,1.089733 -4.13396,1.811536 -15.81842,11.455698 -21.6782,17.892816 -5.13752,5.643712 -10.28514,12.266012 -10.28514,13.231612 0,0.34678 -0.2589,0.63052 -0.57532,0.63052 -0.31642,0 -0.7409,0.65979 -0.9433,1.4662 -0.2024,0.80642 -0.6033,1.46621 -0.8909,1.46621 -0.28759,0 -0.5229,0.39588 -0.5229,0.87973 0,0.48385 -0.24614,0.87972 -0.54696,0.87972 -0.30083,0 -0.71656,0.59382 -0.92385,1.31959 -0.20728,0.72577 -1.247,3.16701 -2.31049,5.42497 -1.06348,2.25796 -2.25402,5.16106 -2.64563,6.45132 -0.39162,1.29026 -1.08515,3.17757 -1.54118,4.19402 -0.45603,1.01644 -0.82914,2.41034 -0.82914,3.09753 0,0.6872 -0.50797,2.75866 -1.12881,4.60324 -1.66541,4.94807 -2.67023,19.13887 -2.67724,37.80968 l -0.006,16.27491 -30.2039,-1.9e-4 -30.203894,-1.8e-4 z"
   id="path6469" /><path
   style="fill:#333333;fill-opacity:1;stroke:#ffffff;stroke-width:2;stroke-miterlimit:4;stroke-dasharray:none;stroke-opacity:1"
   d="m 98.668709,185.76919 c 0.07672,-3.14534 0.237652,-14.69198 0.357616,-25.65922 0.230812,-21.10111 0.939319,-27.94849 3.957415,-38.2466 0.64157,-2.18912 1.54859,-5.49946 2.01559,-7.35633 0.46701,-1.85687 2.07641,-6.60739 3.57645,-10.5567 12.24233,-32.231726 33.96366,-58.714654 63.7272,-77.697053 4.74335,-3.025183 21.01644,-11.330528 23.87571,-12.185513 0.80642,-0.241137 2.52188,-0.922812 3.81215,-1.514833 2.48387,-1.139694 14.78213,-4.9562347 18.75596,-5.8205698 1.29659,-0.282018 3.91388,-0.907723 5.8162,-1.3904557 1.90232,-0.4827326 5.80402,-1.1628513 8.67045,-1.5113748 6.67731,-0.8118828 39.10863,-0.8121272 45.6394,-3.44e-4 7.43881,0.924654 26.86606,5.9050575 31.96335,8.1941803 0.64513,0.28972 3.54822,1.484867 6.45131,2.655882 6.80581,2.745245 18.01553,8.600833 24.67293,12.888321 8.07748,5.202044 25.35506,19.41108 28.38107,23.340515 0.79391,1.030926 3.15345,3.853792 5.24343,6.273036 4.29934,4.976663 12.35649,15.654015 12.82736,16.998845 0.17118,0.488893 0.64017,1.284774 1.04221,1.768623 1.31975,1.588326 7.45266,12.528593 9.20561,16.421535 0.94411,2.096678 2.32025,5.13173 3.05809,6.744559 2.58537,5.651257 7.90141,23.741707 9.42261,32.065047 1.71649,9.3919 2.54515,24.48378 2.59478,47.25683 l 0.0284,13.04926 h -29.5424 -29.54243 l -0.31351,-20.08706 c -0.31668,-20.29006 -0.9299,-27.22086 -3.09584,-34.99043 -3.85123,-13.81497 -8.80006,-24.50278 -15.65527,-33.8102 -4.22683,-5.738798 -18.71406,-19.996737 -23.60539,-23.231768 -13.86536,-9.170295 -28.2906,-14.63435 -43.10653,-16.328096 -6.45659,-0.738113 -18.8107,-0.728155 -25.51202,0.02058 -16.33081,1.824591 -31.94689,7.932235 -44.85204,17.542188 -13.12846,9.776238 -26.17515,25.434066 -31.50269,37.807546 -7.53693,17.50492 -8.96518,26.35895 -8.97359,55.62938 l -0.005,17.44785 -29.76403,5.8e-4 -29.76403,5.7e-4 z"
   id="path6728" /><path
   style="fill:#333333;fill-opacity:1;stroke:#ffffff;stroke-width:2;stroke-miterlimit:4;stroke-dasharray:none;stroke-opacity:1"
   d="m 99.41425,174.03895 c 0.0062,-19.72137 0.80235,-36.84206 2.00564,-43.1311 1.13618,-5.9383 5.0311,-19.42084 7.68247,-26.59339 7.44505,-20.140604 21.87459,-42.063148 37.54088,-57.035225 17.89296,-17.100077 40.44832,-30.540462 62.45649,-37.21685 8.32287,-2.5248205 19.32057,-5.0181128 24.90714,-5.6467063 6.96927,-0.7841723 36.95974,-0.7709253 44.04794,0.019456 6.91919,0.7715345 23.76773,4.9612658 31.60842,7.8600713 12.83555,4.745469 28.40869,12.985081 37.98617,20.098146 15.18331,11.276431 23.46556,19.468005 34.8901,34.508116 8.19641,10.79035 17.51805,28.293918 21.52861,40.424992 3.13013,9.46799 6.04735,20.90876 7.03108,27.57458 1.15827,7.84847 2.07836,26.83565 2.07836,42.88941 v 13.10989 h -29.03093 -29.03093 l -0.008,-9.53035 c -0.0119,-14.68946 -1.033,-34.21441 -2.07811,-39.73721 -2.12322,-11.21998 -8.5308,-26.86804 -15.00838,-36.65225 -4.29797,-6.491958 -20.29114,-22.427163 -26.93348,-26.835847 -6.12933,-4.068195 -16.60201,-9.15412 -23.71112,-11.515003 -16.81584,-5.584421 -38.67039,-6.292616 -56.37637,-1.826872 -18.19077,4.588007 -31.91061,12.755351 -45.96498,27.362681 -12.38596,12.873271 -19.04018,24.174991 -23.69869,40.250551 -2.73541,9.43932 -3.34442,15.66714 -3.69745,37.81076 l -0.3296,20.67354 H 128.35935 99.408935 l 0.0053,-16.86139 z"
   id="path6773" /></svg>
