<?xml version="1.0" encoding="UTF-8" standalone="no"?>
<!DOCTYPE svg PUBLIC "-//W3C//DTD SVG 1.1//EN" "http://www.w3.org/Graphics/SVG/1.1/DTD/svg11.dtd">
<svg width="100%" height="100%" viewBox="0 0 450 450" version="1.1" xmlns="http://www.w3.org/2000/svg" xmlns:xlink="http://www.w3.org/1999/xlink" xml:space="preserve" xmlns:serif="http://www.serif.com/" style="fill-rule:evenodd;clip-rule:evenodd;stroke-linejoin:round;stroke-miterlimit:1.5;">
    <g transform="matrix(1,0,0,1,-39224,-13659)">
        <g>
            <g transform="matrix(0.538555,0,0,0.673192,39107.8,12873.5)">
                <g transform="matrix(1.14999,0,0,0.919998,-35040.5,-10617.8)">
                    <circle cx="31021" cy="13197.6" r="257.744" style="fill:none;stroke:black;stroke-width:38.75px;"/>
                    <circle cx="31021" cy="13197.6" r="257.744" style="fill:white;"/>
                </g>
                <g transform="matrix(1.14999,0,0,0.919998,-35107.3,-10619.8)">
                    <circle cx="31079.1" cy="13199.7" r="184.164" style="fill:none;stroke:black;stroke-width:20.34px;"/>
                    <circle cx="31079.1" cy="13199.7" r="184.164" style="fill:white;"/>
                </g>
                <g transform="matrix(0.743889,0,0,0.595113,-22461.8,-6312.08)">
                    <path d="M31263.3,13199.7C31263.3,13271.8 31221.8,13334.3 31161.4,13364.5" style="fill:none;stroke:black;stroke-width:17px;stroke-linecap:round;stroke-linejoin:miter;"/>
                </g>
            </g>
            <g transform="matrix(1.22376,0,0,1.22376,-7017.44,-3104.46)">
                <rect x="37787" y="13698.9" width="366.297" height="366.297" style="fill:none;"/>
            </g>
        </g>
    </g>
</svg>
