<?xml version="1.0" encoding="UTF-8" standalone="no"?>
<!-- Created with Inkscape (http://www.inkscape.org/) -->

<svg
   width="43.794956mm"
   height="47.5065mm"
   viewBox="0 0 43.794956 47.5065"
   version="1.1"
   id="svg5"
   xml:space="preserve"
   inkscape:version="1.2.1 (9c6d41e410, 2022-07-14)"
   sodipodi:docname="SkipShuttle.svg"
   xmlns:inkscape="http://www.inkscape.org/namespaces/inkscape"
   xmlns:sodipodi="http://sodipodi.sourceforge.net/DTD/sodipodi-0.dtd"
   xmlns="http://www.w3.org/2000/svg"
   xmlns:svg="http://www.w3.org/2000/svg"><sodipodi:namedview
     id="namedview7"
     pagecolor="#ffffff"
     bordercolor="#000000"
     borderopacity="0.25"
     inkscape:showpageshadow="2"
     inkscape:pageopacity="0.0"
     inkscape:pagecheckerboard="0"
     inkscape:deskcolor="#d1d1d1"
     inkscape:document-units="mm"
     showgrid="false"
     inkscape:zoom="1.0859962"
     inkscape:cx="254.60495"
     inkscape:cy="201.65817"
     inkscape:window-width="1536"
     inkscape:window-height="801"
     inkscape:window-x="3832"
     inkscape:window-y="1072"
     inkscape:window-maximized="1"
     inkscape:current-layer="layer1" /><defs
     id="defs2" /><g
     inkscape:label="Layer 1"
     inkscape:groupmode="layer"
     id="layer1"
     transform="translate(-8.4578973,-38.20787)"><ellipse
       style="fill:#eeebc0;fill-opacity:1;stroke:#000000;stroke-width:0.687;stroke-dasharray:none;stroke-opacity:1"
       id="path11449"
       cx="30.229618"
       cy="54.995239"
       rx="15.956606"
       ry="15.956607"
       inkscape:export-filename="SkipShuffle.png"
       inkscape:export-xdpi="96"
       inkscape:export-ydpi="96" /><path
       style="fill:#e6e4e0;fill-opacity:1;stroke:#000000;stroke-width:0.296;stroke-dasharray:none;stroke-opacity:1"
       d="m 24.810651,50.835558 c 0.117922,-1.189955 0.07431,-2.406425 -0.06557,-3.592695 -0.106031,-0.899181 -0.06286,-3.090309 0.280178,-3.893769 0.0767,-0.179639 0.21425,-0.964078 0.643815,-0.741458 0.254909,0.132106 0.191473,0.82359 0.154992,1.047028 -0.178196,1.091406 -0.01372,2.223658 -0.08346,3.327566 -0.02836,0.448974 -0.112848,1.680689 0.02384,2.067092 0.120323,0.34013 0.307505,0.661194 0.739194,0.552722 0.405422,-0.101869 0.294673,-1.094927 0.262295,-1.359336 -0.127391,-1.040318 -0.125413,-2.499215 -0.04769,-3.534278 0.05539,-0.737669 0.149031,-1.474435 0.149031,-2.213133 0,-0.213413 -0.06021,-0.899708 0.166915,-1.004338 0.696048,-0.320646 0.6486,0.688772 0.584202,1.125665 -0.101223,0.686736 0.01192,1.428313 0.01192,2.11877 0,1.273249 -0.05365,2.535788 -0.05365,3.808391 0,0.218512 -0.03869,0.691224 0.166915,0.826836 0.70646,0.465971 0.792846,-0.788683 0.792846,-1.206553 0,-1.220919 0.08446,-2.43614 0.04769,-3.655605 -0.01368,-0.453816 -0.05365,-0.914982 -0.05365,-1.366078 0,-0.239225 -0.039,-0.581398 0.190762,-0.725728 0.288731,-0.181377 0.618979,0.100756 0.673618,0.36848 0.05869,0.287576 0.02975,0.590558 0.0775,0.883007 0.04576,0.280252 0.150323,0.543034 0.214606,0.815602 0.05317,0.225454 -0.01775,1.719887 -0.07154,1.968233 -0.260479,1.202661 0.01389,2.701382 -0.274216,3.922977 -0.06457,0.273791 -0.121793,0.825905 -0.220568,1.049274 -0.180628,0.408485 -0.389114,0.815623 -0.584202,1.220033 -0.06157,0.127627 -0.07942,0.3683 -0.131148,0.514528 -0.08837,0.249806 -0.04556,0.570222 -0.09538,0.826836 -0.19969,1.02862 -0.184798,2.074436 -0.184798,3.136585 0,1.03514 -0.14307,2.063176 -0.14307,3.091651 0,2.409438 0,4.821774 0,7.23257 0,0.288354 -0.14431,1.167382 -0.482861,1.269466 -0.06693,0.02019 -0.163776,0.0021 -0.232488,0.0021 -0.05652,0 -0.159524,0.01535 -0.208644,-0.01796 -0.05793,-0.0393 -0.172155,-0.04041 -0.178837,-0.110096 -0.08965,-0.934799 0.112246,-1.865037 0.04769,-2.801805 -0.02774,-0.402576 -0.104253,-0.795234 -0.166914,-1.190826 -0.08562,-0.540557 -0.02303,-1.138936 -0.04769,-1.687375 -0.02503,-0.556638 0.03139,-1.106146 0.07154,-1.655918 0.04603,-0.630357 0.04847,-1.329492 -0.01788,-1.95475 -0.07447,-0.701759 0.02861,-1.427101 -0.02384,-2.13225 -0.0352,-0.473245 0.05343,-0.967907 -0.006,-1.437976 -0.06385,-0.505365 -0.13558,-1.004226 -0.184798,-1.51437 -0.04031,-0.417806 0.007,-0.751731 -0.14307,-1.15712 -0.175514,-0.474094 -0.61245,-0.797526 -0.882265,-1.204307 -0.235513,-0.355066 -0.441442,-0.666411 -0.715349,-1.017818 z"
       id="path8222" /><path
       style="fill:none;fill-opacity:1;stroke:#000000;stroke-width:0.0960001;stroke-dasharray:none;stroke-opacity:1"
       d="m 33.215738,40.501569 c -0.594706,0.536152 -0.836866,1.301581 -1.150522,2.022155 -0.258371,0.593569 -0.533485,1.215599 -0.733232,1.831173 -0.12968,0.399645 -0.145362,0.801304 -0.214606,1.211046 -0.267565,1.583303 -0.403984,3.100509 -0.107302,4.684656 0.08568,0.457507 0.382035,0.796211 0.542473,1.195319 0.04679,0.116385 0.18974,0.195416 0.244411,0.319051 0.260644,0.58943 0.53834,1.414094 0.691505,2.049115 0.503028,2.085549 0.292102,4.302324 0.292102,6.430452 0,1.190271 -0.01788,2.381806 -0.01788,3.570227 0,0.647343 0.07176,1.355545 -0.02384,1.995191 -0.05091,0.340614 -0.285684,3.046542 0.608046,2.709688 0.201084,-0.07579 0.354735,-0.437396 0.375561,-0.633608 0.06777,-0.638583 0.0345,-1.397844 -0.02384,-2.035636 -0.07802,-0.852834 0,-1.755815 0,-2.610826 0,-2.51188 0.236151,-5.003284 0.423248,-7.506687 0.04748,-0.635347 -0.04778,-1.23245 -0.09538,-1.860383 -0.06058,-0.799097 -0.01757,-1.656144 0.05961,-2.451301 0.06427,-0.662133 0.169693,-1.314755 0.220565,-1.979465 0.03721,-0.486222 -0.02739,-0.978797 0.006,-1.464937 0.06352,-0.925655 0.131344,-1.865971 0.0775,-2.799561 -0.02662,-0.461584 -0.120364,-0.920618 -0.160954,-1.379559 -0.05552,-0.627771 -0.01669,-2.756961 -0.590161,-3.08266 -0.137395,-0.07803 -0.282167,-0.142301 -0.423249,-0.21345 z"
       id="path8224" /><path
       style="fill:#e6e4e0;fill-opacity:1;stroke:#000000;stroke-width:0.231;stroke-dasharray:none;stroke-opacity:1"
       d="m 33.051617,68.356703 c -0.179533,-0.179533 -0.263949,-0.653182 -0.259834,-1.457896 0.0019,-0.379003 0.02111,-3.150457 0.0426,-6.158788 0.03571,-4.998575 0.02577,-5.540174 -0.11534,-6.287993 -0.181205,-0.960239 -0.686668,-2.532509 -0.915516,-2.847771 -0.08807,-0.121327 -0.278511,-0.455104 -0.423199,-0.74173 -0.500269,-0.991026 -0.567632,-2.837093 -0.189873,-5.20346 0.195361,-1.22379 0.247526,-1.392777 0.92651,-3.001301 0.526584,-1.247489 0.927256,-1.926227 1.163635,-1.971201 0.260797,-0.04962 0.546322,0.339241 0.654016,0.890706 0.332369,1.701967 0.407543,6.88575 0.132992,9.170871 -0.108492,0.902991 -0.12824,1.58655 -0.08838,3.058898 0.04118,1.521151 0.01521,2.338663 -0.131355,4.13457 -0.14419,1.766808 -0.186415,3.049955 -0.200379,6.089203 -0.01799,3.917288 -0.04773,4.293102 -0.348737,4.408609 -0.06535,0.02508 -0.176567,-0.01214 -0.247139,-0.08272 z"
       id="path8295" /><path
       style="fill:#d79f4e;fill-opacity:0.7;stroke:#000000;stroke-width:0.342136;stroke-dasharray:none;stroke-opacity:1"
       d="m 40.37468,48.638934 c -3.766226,-3.206476 -6.891429,-4.44673 -11.884316,-3.563486 -0.946177,0.16738 -1.902326,0.328142 -2.776947,0.74708 -0.568752,0.272424 -1.00984,0.775877 -1.484745,1.177049 -0.870567,0.735402 -1.611546,1.435641 -2.334553,2.323217 -0.758538,0.931196 -1.568322,1.869584 -1.992593,3.006702 -0.4559,1.221893 -0.751974,2.657431 -0.685883,3.963333 0.04103,0.810778 0.330095,1.670963 0.606887,2.419828 0.912735,2.469426 2.394083,4.744493 4.958078,5.773179 2.295016,0.920771 7.520838,1.158722 9.925981,0.347008 1.162245,-0.392249 2.966327,-0.889059 3.565587,-2.093662 0.167233,-0.336159 0.217053,-0.730819 0.298369,-1.093211 0.149114,-0.664538 0.157978,-1.334736 0.306829,-1.998105 0.03134,-0.139656 0.06267,-0.279308 0.09401,-0.418966 0.0082,-0.03641 -0.02903,-0.11987 0.0073,-0.111695 0.80526,0.18069 1.498481,0.181885 2.342077,0.205488 0.100038,0.0028 0.422817,0.09372 0.529357,0.04543 0.08171,-0.037 -0.143006,-0.278336 -0.161972,-0.303048 -0.255873,-0.333397 -0.391102,-0.777894 -0.53427,-1.166698 -0.397945,-1.080706 -1.036284,-1.919939 -1.781321,-2.783371 -0.06717,-0.07784 -0.309923,-0.52815 -0.442929,-0.509445 -0.505826,0.07114 -2.095373,2.126653 -2.574659,2.526043 -0.426541,0.355436 -0.882907,0.818922 -1.41675,0.992281 -0.171273,0.05562 -0.340815,0.117255 -0.514565,0.164579 -0.09124,0.02485 -0.261005,-0.0588 -0.28171,0.03347 -0.0088,0.03931 0.07859,0.01764 0.117902,0.02645 0.193738,0.04346 0.392732,0.105109 0.589477,0.13227 0.75664,0.104449 1.559179,0.173171 2.303031,0.340082 0.04701,0.01051 0.522285,0.06389 0.527809,0.09175 0.115337,0.582054 -0.851986,2.608368 -1.316011,2.908483 -0.492301,0.318406 -1.008123,0.60438 -1.518265,0.892825 -1.044636,0.590663 -1.31231,0.674165 -2.544379,0.932614 -1.362097,0.285728 -2.83611,0.167163 -4.203016,0.0071 -0.712141,-0.08343 -1.520862,-0.02714 -2.19783,-0.296472 -2.700015,-1.074233 -4.20493,-2.845241 -4.802473,-5.678256 -0.24477,-1.160483 -0.402662,-2.477932 0.01839,-3.62971 0.210136,-0.574818 0.612146,-1.135907 0.961626,-1.644482 1.427038,-2.076676 3.006496,-3.991496 5.629952,-4.474171 0.516598,-0.09504 1.170532,-0.311586 1.713631,-0.265573 1.615386,0.136866 3.046107,0.901662 4.539747,1.448723 1.001,0.366628 1.988951,0.690154 2.934496,1.191874 0.369275,0.195942 0.908975,0.591509 1.185372,0.90607 0.148019,0.168457 0.38106,0.688923 0.637416,0.746446 0.04903,0.011 0.06106,-0.103448 0.111279,-0.101713 0.212633,0.0073 0.478018,-0.03397 0.682151,-0.08364 0.172513,-0.04197 1.965834,-0.138576 1.997813,-0.191802 0.114701,-0.19094 -0.276884,-0.674606 -0.347747,-0.854805 -0.271688,-0.690887 -0.500486,-1.400225 -0.787708,-2.087018 z"
       id="path8413" /><text
       xml:space="preserve"
       style="font-style:normal;font-variant:normal;font-weight:normal;font-stretch:normal;font-size:11.9944px;font-family:'Life is goofy';-inkscape-font-specification:'Life is goofy, Normal';font-variant-ligatures:normal;font-variant-caps:normal;font-variant-numeric:normal;font-variant-east-asian:normal;fill:#ffffff;fill-opacity:1;stroke:#000000;stroke-width:0.354;stroke-dasharray:none;stroke-opacity:1"
       x="9.014595"
       y="74.629066"
       id="text12730"
       transform="scale(0.95724283,1.044667)"><tspan
         sodipodi:role="line"
         id="tspan21557"
         x="9.014595"
         y="74.629066">Skip &amp; Shuffle</tspan></text><text
       xml:space="preserve"
       style="font-style:normal;font-variant:normal;font-weight:normal;font-stretch:normal;font-size:10.5833px;font-family:'Life is goofy';-inkscape-font-specification:'Life is goofy, Normal';font-variant-ligatures:normal;font-variant-caps:normal;font-variant-numeric:normal;font-variant-east-asian:normal;fill:#bcc487;fill-opacity:1;stroke:#000000;stroke-width:0.354;stroke-dasharray:none;stroke-opacity:1"
       x="16.529747"
       y="81.73716"
       id="text12730-5"
       transform="scale(0.95724283,1.044667)"><tspan
         sodipodi:role="line"
         id="tspan18904"
         x="16.529747"
         y="81.73716">+ 5% Sick</tspan></text></g></svg>
